G04 #@! TF.GenerationSoftware,KiCad,Pcbnew,(5.1.2-1)-1*
G04 #@! TF.CreationDate,2020-05-14T07:39:01+12:00*
G04 #@! TF.ProjectId,RatTrapSensorPCB,52617454-7261-4705-9365-6e736f725043,1.0*
G04 #@! TF.SameCoordinates,Original*
G04 #@! TF.FileFunction,Copper,L2,Bot*
G04 #@! TF.FilePolarity,Positive*
%FSLAX46Y46*%
G04 Gerber Fmt 4.6, Leading zero omitted, Abs format (unit mm)*
G04 Created by KiCad (PCBNEW (5.1.2-1)-1) date 2020-05-14 07:39:01*
%MOMM*%
%LPD*%
G04 APERTURE LIST*
%ADD10R,1.700000X1.700000*%
%ADD11O,1.700000X1.700000*%
%ADD12C,1.524000*%
%ADD13C,0.600000*%
%ADD14C,0.500000*%
%ADD15C,0.254000*%
G04 APERTURE END LIST*
D10*
X143825000Y-111550000D03*
D11*
X143825000Y-109010000D03*
X143825000Y-106470000D03*
D10*
X143825000Y-136550000D03*
D11*
X143825000Y-134010000D03*
X143825000Y-131470000D03*
X143825000Y-128930000D03*
X143825000Y-126390000D03*
D10*
X171550000Y-130550000D03*
D11*
X171550000Y-128010000D03*
X171550000Y-125470000D03*
X171550000Y-122930000D03*
D10*
X171550000Y-116550000D03*
D11*
X171550000Y-114010000D03*
X171550000Y-111470000D03*
X171550000Y-108930000D03*
D10*
X172625000Y-104675000D03*
D11*
X170085000Y-104675000D03*
D10*
X143825000Y-117550000D03*
D11*
X143825000Y-120090000D03*
D12*
X151041100Y-111353600D03*
X151041100Y-113893600D03*
X151041100Y-116433600D03*
X151041100Y-118973600D03*
X151041100Y-121513600D03*
X151041100Y-124053600D03*
X151041100Y-126593600D03*
X151041100Y-129133600D03*
X151041100Y-131673600D03*
X151041100Y-134213600D03*
X151041100Y-136753600D03*
X151041100Y-139293600D03*
X166281100Y-111353600D03*
X166281100Y-113893600D03*
X166281100Y-116433600D03*
X166281100Y-118973600D03*
X166281100Y-121513600D03*
X166281100Y-124053600D03*
X166281100Y-126593600D03*
X166281100Y-129133600D03*
X166281100Y-131673600D03*
X166281100Y-134213600D03*
X166281100Y-136753600D03*
X166281100Y-139293600D03*
D10*
X142775000Y-160650000D03*
D11*
X145315000Y-160650000D03*
D13*
X163575000Y-146500000D03*
X163575000Y-142525000D03*
X161200000Y-150125000D03*
X161350000Y-143575000D03*
X154150000Y-141575000D03*
X154150000Y-137350000D03*
D14*
X163525000Y-146450000D02*
X163575000Y-146500000D01*
X163525000Y-142575000D02*
X163525000Y-146450000D01*
X163575000Y-142525000D02*
X163525000Y-142575000D01*
X161200000Y-143725000D02*
X161200000Y-150125000D01*
X161350000Y-143575000D02*
X161200000Y-143725000D01*
X154150000Y-137350000D02*
X154150000Y-141575000D01*
D15*
G36*
X174290001Y-161815000D02*
G01*
X146236262Y-161815000D01*
X146370134Y-161705134D01*
X146555706Y-161479014D01*
X146693599Y-161221034D01*
X146778513Y-160941111D01*
X146807185Y-160650000D01*
X146778513Y-160358889D01*
X146693599Y-160078966D01*
X146555706Y-159820986D01*
X146370134Y-159594866D01*
X146144014Y-159409294D01*
X145886034Y-159271401D01*
X145606111Y-159186487D01*
X145387950Y-159165000D01*
X145242050Y-159165000D01*
X145023889Y-159186487D01*
X144743966Y-159271401D01*
X144485986Y-159409294D01*
X144259866Y-159594866D01*
X144235393Y-159624687D01*
X144214502Y-159555820D01*
X144155537Y-159445506D01*
X144076185Y-159348815D01*
X143979494Y-159269463D01*
X143869180Y-159210498D01*
X143749482Y-159174188D01*
X143625000Y-159161928D01*
X143060750Y-159165000D01*
X142902000Y-159323750D01*
X142902000Y-160523000D01*
X142922000Y-160523000D01*
X142922000Y-160777000D01*
X142902000Y-160777000D01*
X142902000Y-160797000D01*
X142648000Y-160797000D01*
X142648000Y-160777000D01*
X142628000Y-160777000D01*
X142628000Y-160523000D01*
X142648000Y-160523000D01*
X142648000Y-159323750D01*
X142489250Y-159165000D01*
X141925000Y-159161928D01*
X141800518Y-159174188D01*
X141680820Y-159210498D01*
X141660000Y-159221627D01*
X141660000Y-142575000D01*
X162635719Y-142575000D01*
X162640000Y-142618469D01*
X162640001Y-146406521D01*
X162635719Y-146450000D01*
X162640000Y-146493469D01*
X162640000Y-146592089D01*
X162675932Y-146772729D01*
X162746414Y-146942889D01*
X162848738Y-147096028D01*
X162978972Y-147226262D01*
X163132111Y-147328586D01*
X163302271Y-147399068D01*
X163482911Y-147435000D01*
X163667089Y-147435000D01*
X163847729Y-147399068D01*
X164017889Y-147328586D01*
X164171028Y-147226262D01*
X164301262Y-147096028D01*
X164403586Y-146942889D01*
X164474068Y-146772729D01*
X164510000Y-146592089D01*
X164510000Y-146407911D01*
X164474068Y-146227271D01*
X164410000Y-146072596D01*
X164410000Y-142952404D01*
X164474068Y-142797729D01*
X164510000Y-142617089D01*
X164510000Y-142432911D01*
X164474068Y-142252271D01*
X164403586Y-142082111D01*
X164301262Y-141928972D01*
X164171028Y-141798738D01*
X164017889Y-141696414D01*
X163847729Y-141625932D01*
X163667089Y-141590000D01*
X163482911Y-141590000D01*
X163302271Y-141625932D01*
X163132111Y-141696414D01*
X162978972Y-141798738D01*
X162848738Y-141928972D01*
X162746414Y-142082111D01*
X162675932Y-142252271D01*
X162640000Y-142432911D01*
X162640000Y-142531531D01*
X162635719Y-142575000D01*
X141660000Y-142575000D01*
X141660000Y-126390000D01*
X142332815Y-126390000D01*
X142361487Y-126681111D01*
X142446401Y-126961034D01*
X142584294Y-127219014D01*
X142769866Y-127445134D01*
X142995986Y-127630706D01*
X143050791Y-127660000D01*
X142995986Y-127689294D01*
X142769866Y-127874866D01*
X142584294Y-128100986D01*
X142446401Y-128358966D01*
X142361487Y-128638889D01*
X142332815Y-128930000D01*
X142361487Y-129221111D01*
X142446401Y-129501034D01*
X142584294Y-129759014D01*
X142769866Y-129985134D01*
X142995986Y-130170706D01*
X143050791Y-130200000D01*
X142995986Y-130229294D01*
X142769866Y-130414866D01*
X142584294Y-130640986D01*
X142446401Y-130898966D01*
X142361487Y-131178889D01*
X142332815Y-131470000D01*
X142361487Y-131761111D01*
X142446401Y-132041034D01*
X142584294Y-132299014D01*
X142769866Y-132525134D01*
X142995986Y-132710706D01*
X143050791Y-132740000D01*
X142995986Y-132769294D01*
X142769866Y-132954866D01*
X142584294Y-133180986D01*
X142446401Y-133438966D01*
X142361487Y-133718889D01*
X142332815Y-134010000D01*
X142361487Y-134301111D01*
X142446401Y-134581034D01*
X142584294Y-134839014D01*
X142769866Y-135065134D01*
X142799687Y-135089607D01*
X142730820Y-135110498D01*
X142620506Y-135169463D01*
X142523815Y-135248815D01*
X142444463Y-135345506D01*
X142385498Y-135455820D01*
X142349188Y-135575518D01*
X142336928Y-135700000D01*
X142336928Y-137400000D01*
X142349188Y-137524482D01*
X142385498Y-137644180D01*
X142444463Y-137754494D01*
X142523815Y-137851185D01*
X142620506Y-137930537D01*
X142730820Y-137989502D01*
X142850518Y-138025812D01*
X142975000Y-138038072D01*
X144675000Y-138038072D01*
X144799482Y-138025812D01*
X144919180Y-137989502D01*
X145029494Y-137930537D01*
X145126185Y-137851185D01*
X145205537Y-137754494D01*
X145264502Y-137644180D01*
X145300812Y-137524482D01*
X145313072Y-137400000D01*
X145313072Y-135700000D01*
X145300812Y-135575518D01*
X145264502Y-135455820D01*
X145205537Y-135345506D01*
X145126185Y-135248815D01*
X145029494Y-135169463D01*
X144919180Y-135110498D01*
X144850313Y-135089607D01*
X144880134Y-135065134D01*
X145065706Y-134839014D01*
X145203599Y-134581034D01*
X145288513Y-134301111D01*
X145317185Y-134010000D01*
X145288513Y-133718889D01*
X145203599Y-133438966D01*
X145065706Y-133180986D01*
X144880134Y-132954866D01*
X144654014Y-132769294D01*
X144599209Y-132740000D01*
X144654014Y-132710706D01*
X144880134Y-132525134D01*
X145065706Y-132299014D01*
X145203599Y-132041034D01*
X145288513Y-131761111D01*
X145317185Y-131470000D01*
X145288513Y-131178889D01*
X145203599Y-130898966D01*
X145065706Y-130640986D01*
X144880134Y-130414866D01*
X144654014Y-130229294D01*
X144599209Y-130200000D01*
X144654014Y-130170706D01*
X144880134Y-129985134D01*
X145065706Y-129759014D01*
X145203599Y-129501034D01*
X145288513Y-129221111D01*
X145317185Y-128930000D01*
X145288513Y-128638889D01*
X145203599Y-128358966D01*
X145065706Y-128100986D01*
X144880134Y-127874866D01*
X144654014Y-127689294D01*
X144599209Y-127660000D01*
X144654014Y-127630706D01*
X144880134Y-127445134D01*
X145065706Y-127219014D01*
X145203599Y-126961034D01*
X145288513Y-126681111D01*
X145317185Y-126390000D01*
X145288513Y-126098889D01*
X145203599Y-125818966D01*
X145065706Y-125560986D01*
X144880134Y-125334866D01*
X144654014Y-125149294D01*
X144396034Y-125011401D01*
X144116111Y-124926487D01*
X143897950Y-124905000D01*
X143752050Y-124905000D01*
X143533889Y-124926487D01*
X143253966Y-125011401D01*
X142995986Y-125149294D01*
X142769866Y-125334866D01*
X142584294Y-125560986D01*
X142446401Y-125818966D01*
X142361487Y-126098889D01*
X142332815Y-126390000D01*
X141660000Y-126390000D01*
X141660000Y-120090000D01*
X142332815Y-120090000D01*
X142361487Y-120381111D01*
X142446401Y-120661034D01*
X142584294Y-120919014D01*
X142769866Y-121145134D01*
X142995986Y-121330706D01*
X143253966Y-121468599D01*
X143533889Y-121553513D01*
X143752050Y-121575000D01*
X143897950Y-121575000D01*
X144116111Y-121553513D01*
X144396034Y-121468599D01*
X144569259Y-121376008D01*
X149644100Y-121376008D01*
X149644100Y-121651192D01*
X149697786Y-121921090D01*
X149803095Y-122175327D01*
X149955980Y-122404135D01*
X150150565Y-122598720D01*
X150379373Y-122751605D01*
X150456615Y-122783600D01*
X150379373Y-122815595D01*
X150150565Y-122968480D01*
X149955980Y-123163065D01*
X149803095Y-123391873D01*
X149697786Y-123646110D01*
X149644100Y-123916008D01*
X149644100Y-124191192D01*
X149697786Y-124461090D01*
X149803095Y-124715327D01*
X149955980Y-124944135D01*
X150150565Y-125138720D01*
X150379373Y-125291605D01*
X150456615Y-125323600D01*
X150379373Y-125355595D01*
X150150565Y-125508480D01*
X149955980Y-125703065D01*
X149803095Y-125931873D01*
X149697786Y-126186110D01*
X149644100Y-126456008D01*
X149644100Y-126731192D01*
X149697786Y-127001090D01*
X149803095Y-127255327D01*
X149955980Y-127484135D01*
X150150565Y-127678720D01*
X150379373Y-127831605D01*
X150456615Y-127863600D01*
X150379373Y-127895595D01*
X150150565Y-128048480D01*
X149955980Y-128243065D01*
X149803095Y-128471873D01*
X149697786Y-128726110D01*
X149644100Y-128996008D01*
X149644100Y-129271192D01*
X149697786Y-129541090D01*
X149803095Y-129795327D01*
X149955980Y-130024135D01*
X150150565Y-130218720D01*
X150379373Y-130371605D01*
X150456615Y-130403600D01*
X150379373Y-130435595D01*
X150150565Y-130588480D01*
X149955980Y-130783065D01*
X149803095Y-131011873D01*
X149697786Y-131266110D01*
X149644100Y-131536008D01*
X149644100Y-131811192D01*
X149697786Y-132081090D01*
X149803095Y-132335327D01*
X149955980Y-132564135D01*
X150150565Y-132758720D01*
X150379373Y-132911605D01*
X150456615Y-132943600D01*
X150379373Y-132975595D01*
X150150565Y-133128480D01*
X149955980Y-133323065D01*
X149803095Y-133551873D01*
X149697786Y-133806110D01*
X149644100Y-134076008D01*
X149644100Y-134351192D01*
X149697786Y-134621090D01*
X149803095Y-134875327D01*
X149955980Y-135104135D01*
X150150565Y-135298720D01*
X150379373Y-135451605D01*
X150456615Y-135483600D01*
X150379373Y-135515595D01*
X150150565Y-135668480D01*
X149955980Y-135863065D01*
X149803095Y-136091873D01*
X149697786Y-136346110D01*
X149644100Y-136616008D01*
X149644100Y-136891192D01*
X149697786Y-137161090D01*
X149803095Y-137415327D01*
X149955980Y-137644135D01*
X150150565Y-137838720D01*
X150379373Y-137991605D01*
X150456615Y-138023600D01*
X150379373Y-138055595D01*
X150150565Y-138208480D01*
X149955980Y-138403065D01*
X149803095Y-138631873D01*
X149697786Y-138886110D01*
X149644100Y-139156008D01*
X149644100Y-139431192D01*
X149697786Y-139701090D01*
X149803095Y-139955327D01*
X149955980Y-140184135D01*
X150150565Y-140378720D01*
X150379373Y-140531605D01*
X150633610Y-140636914D01*
X150903508Y-140690600D01*
X151178692Y-140690600D01*
X151448590Y-140636914D01*
X151702827Y-140531605D01*
X151931635Y-140378720D01*
X152126220Y-140184135D01*
X152279105Y-139955327D01*
X152384414Y-139701090D01*
X152438100Y-139431192D01*
X152438100Y-139156008D01*
X152384414Y-138886110D01*
X152279105Y-138631873D01*
X152126220Y-138403065D01*
X151931635Y-138208480D01*
X151702827Y-138055595D01*
X151625585Y-138023600D01*
X151702827Y-137991605D01*
X151931635Y-137838720D01*
X152126220Y-137644135D01*
X152279105Y-137415327D01*
X152344309Y-137257911D01*
X153215000Y-137257911D01*
X153215000Y-137442089D01*
X153250932Y-137622729D01*
X153265000Y-137656693D01*
X153265001Y-141268305D01*
X153250932Y-141302271D01*
X153215000Y-141482911D01*
X153215000Y-141667089D01*
X153250932Y-141847729D01*
X153321414Y-142017889D01*
X153423738Y-142171028D01*
X153553972Y-142301262D01*
X153707111Y-142403586D01*
X153877271Y-142474068D01*
X154057911Y-142510000D01*
X154242089Y-142510000D01*
X154422729Y-142474068D01*
X154592889Y-142403586D01*
X154746028Y-142301262D01*
X154876262Y-142171028D01*
X154978586Y-142017889D01*
X155049068Y-141847729D01*
X155085000Y-141667089D01*
X155085000Y-141482911D01*
X155049068Y-141302271D01*
X155035000Y-141268308D01*
X155035000Y-137656692D01*
X155049068Y-137622729D01*
X155085000Y-137442089D01*
X155085000Y-137257911D01*
X155049068Y-137077271D01*
X154978586Y-136907111D01*
X154876262Y-136753972D01*
X154746028Y-136623738D01*
X154592889Y-136521414D01*
X154422729Y-136450932D01*
X154242089Y-136415000D01*
X154057911Y-136415000D01*
X153877271Y-136450932D01*
X153707111Y-136521414D01*
X153553972Y-136623738D01*
X153423738Y-136753972D01*
X153321414Y-136907111D01*
X153250932Y-137077271D01*
X153215000Y-137257911D01*
X152344309Y-137257911D01*
X152384414Y-137161090D01*
X152438100Y-136891192D01*
X152438100Y-136616008D01*
X152384414Y-136346110D01*
X152279105Y-136091873D01*
X152126220Y-135863065D01*
X151931635Y-135668480D01*
X151702827Y-135515595D01*
X151625585Y-135483600D01*
X151702827Y-135451605D01*
X151931635Y-135298720D01*
X152126220Y-135104135D01*
X152279105Y-134875327D01*
X152384414Y-134621090D01*
X152438100Y-134351192D01*
X152438100Y-134076008D01*
X152384414Y-133806110D01*
X152279105Y-133551873D01*
X152126220Y-133323065D01*
X151931635Y-133128480D01*
X151702827Y-132975595D01*
X151625585Y-132943600D01*
X151702827Y-132911605D01*
X151931635Y-132758720D01*
X152126220Y-132564135D01*
X152279105Y-132335327D01*
X152384414Y-132081090D01*
X152438100Y-131811192D01*
X152438100Y-131536008D01*
X152384414Y-131266110D01*
X152279105Y-131011873D01*
X152126220Y-130783065D01*
X151931635Y-130588480D01*
X151702827Y-130435595D01*
X151625585Y-130403600D01*
X151702827Y-130371605D01*
X151931635Y-130218720D01*
X152126220Y-130024135D01*
X152279105Y-129795327D01*
X152384414Y-129541090D01*
X152438100Y-129271192D01*
X152438100Y-128996008D01*
X152384414Y-128726110D01*
X152279105Y-128471873D01*
X152126220Y-128243065D01*
X151931635Y-128048480D01*
X151702827Y-127895595D01*
X151625585Y-127863600D01*
X151702827Y-127831605D01*
X151931635Y-127678720D01*
X152126220Y-127484135D01*
X152279105Y-127255327D01*
X152384414Y-127001090D01*
X152438100Y-126731192D01*
X152438100Y-126456008D01*
X152384414Y-126186110D01*
X152279105Y-125931873D01*
X152126220Y-125703065D01*
X151931635Y-125508480D01*
X151702827Y-125355595D01*
X151625585Y-125323600D01*
X151702827Y-125291605D01*
X151931635Y-125138720D01*
X152126220Y-124944135D01*
X152279105Y-124715327D01*
X152384414Y-124461090D01*
X152438100Y-124191192D01*
X152438100Y-123916008D01*
X152384414Y-123646110D01*
X152279105Y-123391873D01*
X152126220Y-123163065D01*
X151931635Y-122968480D01*
X151702827Y-122815595D01*
X151625585Y-122783600D01*
X151702827Y-122751605D01*
X151931635Y-122598720D01*
X152126220Y-122404135D01*
X152279105Y-122175327D01*
X152384414Y-121921090D01*
X152438100Y-121651192D01*
X152438100Y-121376008D01*
X152384414Y-121106110D01*
X152279105Y-120851873D01*
X152126220Y-120623065D01*
X151931635Y-120428480D01*
X151702827Y-120275595D01*
X151631157Y-120245908D01*
X151644123Y-120241236D01*
X151760080Y-120179256D01*
X151827060Y-119939165D01*
X151041100Y-119153205D01*
X150255140Y-119939165D01*
X150322120Y-120179256D01*
X150457860Y-120243085D01*
X150379373Y-120275595D01*
X150150565Y-120428480D01*
X149955980Y-120623065D01*
X149803095Y-120851873D01*
X149697786Y-121106110D01*
X149644100Y-121376008D01*
X144569259Y-121376008D01*
X144654014Y-121330706D01*
X144880134Y-121145134D01*
X145065706Y-120919014D01*
X145203599Y-120661034D01*
X145288513Y-120381111D01*
X145317185Y-120090000D01*
X145288513Y-119798889D01*
X145203599Y-119518966D01*
X145065706Y-119260986D01*
X144888958Y-119045617D01*
X149639190Y-119045617D01*
X149680178Y-119317733D01*
X149773464Y-119576623D01*
X149835444Y-119692580D01*
X150075535Y-119759560D01*
X150861495Y-118973600D01*
X151220705Y-118973600D01*
X152006665Y-119759560D01*
X152246756Y-119692580D01*
X152363856Y-119443552D01*
X152430123Y-119176465D01*
X152443010Y-118901583D01*
X152402022Y-118629467D01*
X152308736Y-118370577D01*
X152246756Y-118254620D01*
X152006665Y-118187640D01*
X151220705Y-118973600D01*
X150861495Y-118973600D01*
X150075535Y-118187640D01*
X149835444Y-118254620D01*
X149718344Y-118503648D01*
X149652077Y-118770735D01*
X149639190Y-119045617D01*
X144888958Y-119045617D01*
X144880134Y-119034866D01*
X144850313Y-119010393D01*
X144919180Y-118989502D01*
X145029494Y-118930537D01*
X145126185Y-118851185D01*
X145205537Y-118754494D01*
X145264502Y-118644180D01*
X145300812Y-118524482D01*
X145313072Y-118400000D01*
X145310000Y-117835750D01*
X145151250Y-117677000D01*
X143952000Y-117677000D01*
X143952000Y-117697000D01*
X143698000Y-117697000D01*
X143698000Y-117677000D01*
X142498750Y-117677000D01*
X142340000Y-117835750D01*
X142336928Y-118400000D01*
X142349188Y-118524482D01*
X142385498Y-118644180D01*
X142444463Y-118754494D01*
X142523815Y-118851185D01*
X142620506Y-118930537D01*
X142730820Y-118989502D01*
X142799687Y-119010393D01*
X142769866Y-119034866D01*
X142584294Y-119260986D01*
X142446401Y-119518966D01*
X142361487Y-119798889D01*
X142332815Y-120090000D01*
X141660000Y-120090000D01*
X141660000Y-116700000D01*
X142336928Y-116700000D01*
X142340000Y-117264250D01*
X142498750Y-117423000D01*
X143698000Y-117423000D01*
X143698000Y-116223750D01*
X143952000Y-116223750D01*
X143952000Y-117423000D01*
X145151250Y-117423000D01*
X145310000Y-117264250D01*
X145313072Y-116700000D01*
X145300812Y-116575518D01*
X145264502Y-116455820D01*
X145205537Y-116345506D01*
X145126185Y-116248815D01*
X145029494Y-116169463D01*
X144919180Y-116110498D01*
X144799482Y-116074188D01*
X144675000Y-116061928D01*
X144110750Y-116065000D01*
X143952000Y-116223750D01*
X143698000Y-116223750D01*
X143539250Y-116065000D01*
X142975000Y-116061928D01*
X142850518Y-116074188D01*
X142730820Y-116110498D01*
X142620506Y-116169463D01*
X142523815Y-116248815D01*
X142444463Y-116345506D01*
X142385498Y-116455820D01*
X142349188Y-116575518D01*
X142336928Y-116700000D01*
X141660000Y-116700000D01*
X141660000Y-106470000D01*
X142332815Y-106470000D01*
X142361487Y-106761111D01*
X142446401Y-107041034D01*
X142584294Y-107299014D01*
X142769866Y-107525134D01*
X142995986Y-107710706D01*
X143050791Y-107740000D01*
X142995986Y-107769294D01*
X142769866Y-107954866D01*
X142584294Y-108180986D01*
X142446401Y-108438966D01*
X142361487Y-108718889D01*
X142332815Y-109010000D01*
X142361487Y-109301111D01*
X142446401Y-109581034D01*
X142584294Y-109839014D01*
X142769866Y-110065134D01*
X142799687Y-110089607D01*
X142730820Y-110110498D01*
X142620506Y-110169463D01*
X142523815Y-110248815D01*
X142444463Y-110345506D01*
X142385498Y-110455820D01*
X142349188Y-110575518D01*
X142336928Y-110700000D01*
X142336928Y-112400000D01*
X142349188Y-112524482D01*
X142385498Y-112644180D01*
X142444463Y-112754494D01*
X142523815Y-112851185D01*
X142620506Y-112930537D01*
X142730820Y-112989502D01*
X142850518Y-113025812D01*
X142975000Y-113038072D01*
X144675000Y-113038072D01*
X144799482Y-113025812D01*
X144919180Y-112989502D01*
X145029494Y-112930537D01*
X145126185Y-112851185D01*
X145205537Y-112754494D01*
X145264502Y-112644180D01*
X145300812Y-112524482D01*
X145313072Y-112400000D01*
X145313072Y-111216008D01*
X149644100Y-111216008D01*
X149644100Y-111491192D01*
X149697786Y-111761090D01*
X149803095Y-112015327D01*
X149955980Y-112244135D01*
X150150565Y-112438720D01*
X150379373Y-112591605D01*
X150456615Y-112623600D01*
X150379373Y-112655595D01*
X150150565Y-112808480D01*
X149955980Y-113003065D01*
X149803095Y-113231873D01*
X149697786Y-113486110D01*
X149644100Y-113756008D01*
X149644100Y-114031192D01*
X149697786Y-114301090D01*
X149803095Y-114555327D01*
X149955980Y-114784135D01*
X150150565Y-114978720D01*
X150379373Y-115131605D01*
X150456615Y-115163600D01*
X150379373Y-115195595D01*
X150150565Y-115348480D01*
X149955980Y-115543065D01*
X149803095Y-115771873D01*
X149697786Y-116026110D01*
X149644100Y-116296008D01*
X149644100Y-116571192D01*
X149697786Y-116841090D01*
X149803095Y-117095327D01*
X149955980Y-117324135D01*
X150150565Y-117518720D01*
X150379373Y-117671605D01*
X150451043Y-117701292D01*
X150438077Y-117705964D01*
X150322120Y-117767944D01*
X150255140Y-118008035D01*
X151041100Y-118793995D01*
X151827060Y-118008035D01*
X151760080Y-117767944D01*
X151624340Y-117704115D01*
X151702827Y-117671605D01*
X151931635Y-117518720D01*
X152126220Y-117324135D01*
X152279105Y-117095327D01*
X152384414Y-116841090D01*
X152438100Y-116571192D01*
X152438100Y-116296008D01*
X164884100Y-116296008D01*
X164884100Y-116571192D01*
X164937786Y-116841090D01*
X165043095Y-117095327D01*
X165195980Y-117324135D01*
X165390565Y-117518720D01*
X165619373Y-117671605D01*
X165696615Y-117703600D01*
X165619373Y-117735595D01*
X165390565Y-117888480D01*
X165195980Y-118083065D01*
X165043095Y-118311873D01*
X164937786Y-118566110D01*
X164884100Y-118836008D01*
X164884100Y-119111192D01*
X164937786Y-119381090D01*
X165043095Y-119635327D01*
X165195980Y-119864135D01*
X165390565Y-120058720D01*
X165619373Y-120211605D01*
X165696615Y-120243600D01*
X165619373Y-120275595D01*
X165390565Y-120428480D01*
X165195980Y-120623065D01*
X165043095Y-120851873D01*
X164937786Y-121106110D01*
X164884100Y-121376008D01*
X164884100Y-121651192D01*
X164937786Y-121921090D01*
X165043095Y-122175327D01*
X165195980Y-122404135D01*
X165390565Y-122598720D01*
X165619373Y-122751605D01*
X165696615Y-122783600D01*
X165619373Y-122815595D01*
X165390565Y-122968480D01*
X165195980Y-123163065D01*
X165043095Y-123391873D01*
X164937786Y-123646110D01*
X164884100Y-123916008D01*
X164884100Y-124191192D01*
X164937786Y-124461090D01*
X165043095Y-124715327D01*
X165195980Y-124944135D01*
X165390565Y-125138720D01*
X165619373Y-125291605D01*
X165696615Y-125323600D01*
X165619373Y-125355595D01*
X165390565Y-125508480D01*
X165195980Y-125703065D01*
X165043095Y-125931873D01*
X164937786Y-126186110D01*
X164884100Y-126456008D01*
X164884100Y-126731192D01*
X164937786Y-127001090D01*
X165043095Y-127255327D01*
X165195980Y-127484135D01*
X165390565Y-127678720D01*
X165619373Y-127831605D01*
X165696615Y-127863600D01*
X165619373Y-127895595D01*
X165390565Y-128048480D01*
X165195980Y-128243065D01*
X165043095Y-128471873D01*
X164937786Y-128726110D01*
X164884100Y-128996008D01*
X164884100Y-129271192D01*
X164937786Y-129541090D01*
X165043095Y-129795327D01*
X165195980Y-130024135D01*
X165390565Y-130218720D01*
X165619373Y-130371605D01*
X165696615Y-130403600D01*
X165619373Y-130435595D01*
X165390565Y-130588480D01*
X165195980Y-130783065D01*
X165043095Y-131011873D01*
X164937786Y-131266110D01*
X164884100Y-131536008D01*
X164884100Y-131811192D01*
X164937786Y-132081090D01*
X165043095Y-132335327D01*
X165195980Y-132564135D01*
X165390565Y-132758720D01*
X165619373Y-132911605D01*
X165696615Y-132943600D01*
X165619373Y-132975595D01*
X165390565Y-133128480D01*
X165195980Y-133323065D01*
X165043095Y-133551873D01*
X164937786Y-133806110D01*
X164884100Y-134076008D01*
X164884100Y-134351192D01*
X164937786Y-134621090D01*
X165043095Y-134875327D01*
X165195980Y-135104135D01*
X165390565Y-135298720D01*
X165619373Y-135451605D01*
X165696615Y-135483600D01*
X165619373Y-135515595D01*
X165390565Y-135668480D01*
X165195980Y-135863065D01*
X165043095Y-136091873D01*
X164937786Y-136346110D01*
X164884100Y-136616008D01*
X164884100Y-136891192D01*
X164937786Y-137161090D01*
X165043095Y-137415327D01*
X165195980Y-137644135D01*
X165390565Y-137838720D01*
X165619373Y-137991605D01*
X165696615Y-138023600D01*
X165619373Y-138055595D01*
X165390565Y-138208480D01*
X165195980Y-138403065D01*
X165043095Y-138631873D01*
X164937786Y-138886110D01*
X164884100Y-139156008D01*
X164884100Y-139431192D01*
X164937786Y-139701090D01*
X165043095Y-139955327D01*
X165195980Y-140184135D01*
X165390565Y-140378720D01*
X165619373Y-140531605D01*
X165873610Y-140636914D01*
X166143508Y-140690600D01*
X166418692Y-140690600D01*
X166688590Y-140636914D01*
X166942827Y-140531605D01*
X167171635Y-140378720D01*
X167366220Y-140184135D01*
X167519105Y-139955327D01*
X167624414Y-139701090D01*
X167678100Y-139431192D01*
X167678100Y-139156008D01*
X167624414Y-138886110D01*
X167519105Y-138631873D01*
X167366220Y-138403065D01*
X167171635Y-138208480D01*
X166942827Y-138055595D01*
X166865585Y-138023600D01*
X166942827Y-137991605D01*
X167171635Y-137838720D01*
X167366220Y-137644135D01*
X167519105Y-137415327D01*
X167624414Y-137161090D01*
X167678100Y-136891192D01*
X167678100Y-136616008D01*
X167624414Y-136346110D01*
X167519105Y-136091873D01*
X167366220Y-135863065D01*
X167171635Y-135668480D01*
X166942827Y-135515595D01*
X166865585Y-135483600D01*
X166942827Y-135451605D01*
X167171635Y-135298720D01*
X167366220Y-135104135D01*
X167519105Y-134875327D01*
X167624414Y-134621090D01*
X167678100Y-134351192D01*
X167678100Y-134076008D01*
X167624414Y-133806110D01*
X167519105Y-133551873D01*
X167366220Y-133323065D01*
X167171635Y-133128480D01*
X166942827Y-132975595D01*
X166865585Y-132943600D01*
X166942827Y-132911605D01*
X167171635Y-132758720D01*
X167366220Y-132564135D01*
X167519105Y-132335327D01*
X167624414Y-132081090D01*
X167678100Y-131811192D01*
X167678100Y-131536008D01*
X167624414Y-131266110D01*
X167519105Y-131011873D01*
X167366220Y-130783065D01*
X167171635Y-130588480D01*
X166942827Y-130435595D01*
X166865585Y-130403600D01*
X166942827Y-130371605D01*
X167171635Y-130218720D01*
X167366220Y-130024135D01*
X167519105Y-129795327D01*
X167624414Y-129541090D01*
X167678100Y-129271192D01*
X167678100Y-128996008D01*
X167624414Y-128726110D01*
X167519105Y-128471873D01*
X167366220Y-128243065D01*
X167171635Y-128048480D01*
X166942827Y-127895595D01*
X166865585Y-127863600D01*
X166942827Y-127831605D01*
X167171635Y-127678720D01*
X167366220Y-127484135D01*
X167519105Y-127255327D01*
X167624414Y-127001090D01*
X167678100Y-126731192D01*
X167678100Y-126456008D01*
X167624414Y-126186110D01*
X167519105Y-125931873D01*
X167366220Y-125703065D01*
X167171635Y-125508480D01*
X166942827Y-125355595D01*
X166865585Y-125323600D01*
X166942827Y-125291605D01*
X167171635Y-125138720D01*
X167366220Y-124944135D01*
X167519105Y-124715327D01*
X167624414Y-124461090D01*
X167678100Y-124191192D01*
X167678100Y-123916008D01*
X167624414Y-123646110D01*
X167519105Y-123391873D01*
X167366220Y-123163065D01*
X167171635Y-122968480D01*
X167114046Y-122930000D01*
X170057815Y-122930000D01*
X170086487Y-123221111D01*
X170171401Y-123501034D01*
X170309294Y-123759014D01*
X170494866Y-123985134D01*
X170720986Y-124170706D01*
X170775791Y-124200000D01*
X170720986Y-124229294D01*
X170494866Y-124414866D01*
X170309294Y-124640986D01*
X170171401Y-124898966D01*
X170086487Y-125178889D01*
X170057815Y-125470000D01*
X170086487Y-125761111D01*
X170171401Y-126041034D01*
X170309294Y-126299014D01*
X170494866Y-126525134D01*
X170720986Y-126710706D01*
X170775791Y-126740000D01*
X170720986Y-126769294D01*
X170494866Y-126954866D01*
X170309294Y-127180986D01*
X170171401Y-127438966D01*
X170086487Y-127718889D01*
X170057815Y-128010000D01*
X170086487Y-128301111D01*
X170171401Y-128581034D01*
X170309294Y-128839014D01*
X170494866Y-129065134D01*
X170524687Y-129089607D01*
X170455820Y-129110498D01*
X170345506Y-129169463D01*
X170248815Y-129248815D01*
X170169463Y-129345506D01*
X170110498Y-129455820D01*
X170074188Y-129575518D01*
X170061928Y-129700000D01*
X170061928Y-131400000D01*
X170074188Y-131524482D01*
X170110498Y-131644180D01*
X170169463Y-131754494D01*
X170248815Y-131851185D01*
X170345506Y-131930537D01*
X170455820Y-131989502D01*
X170575518Y-132025812D01*
X170700000Y-132038072D01*
X172400000Y-132038072D01*
X172524482Y-132025812D01*
X172644180Y-131989502D01*
X172754494Y-131930537D01*
X172851185Y-131851185D01*
X172930537Y-131754494D01*
X172989502Y-131644180D01*
X173025812Y-131524482D01*
X173038072Y-131400000D01*
X173038072Y-129700000D01*
X173025812Y-129575518D01*
X172989502Y-129455820D01*
X172930537Y-129345506D01*
X172851185Y-129248815D01*
X172754494Y-129169463D01*
X172644180Y-129110498D01*
X172575313Y-129089607D01*
X172605134Y-129065134D01*
X172790706Y-128839014D01*
X172928599Y-128581034D01*
X173013513Y-128301111D01*
X173042185Y-128010000D01*
X173013513Y-127718889D01*
X172928599Y-127438966D01*
X172790706Y-127180986D01*
X172605134Y-126954866D01*
X172379014Y-126769294D01*
X172324209Y-126740000D01*
X172379014Y-126710706D01*
X172605134Y-126525134D01*
X172790706Y-126299014D01*
X172928599Y-126041034D01*
X173013513Y-125761111D01*
X173042185Y-125470000D01*
X173013513Y-125178889D01*
X172928599Y-124898966D01*
X172790706Y-124640986D01*
X172605134Y-124414866D01*
X172379014Y-124229294D01*
X172324209Y-124200000D01*
X172379014Y-124170706D01*
X172605134Y-123985134D01*
X172790706Y-123759014D01*
X172928599Y-123501034D01*
X173013513Y-123221111D01*
X173042185Y-122930000D01*
X173013513Y-122638889D01*
X172928599Y-122358966D01*
X172790706Y-122100986D01*
X172605134Y-121874866D01*
X172379014Y-121689294D01*
X172121034Y-121551401D01*
X171841111Y-121466487D01*
X171622950Y-121445000D01*
X171477050Y-121445000D01*
X171258889Y-121466487D01*
X170978966Y-121551401D01*
X170720986Y-121689294D01*
X170494866Y-121874866D01*
X170309294Y-122100986D01*
X170171401Y-122358966D01*
X170086487Y-122638889D01*
X170057815Y-122930000D01*
X167114046Y-122930000D01*
X166942827Y-122815595D01*
X166865585Y-122783600D01*
X166942827Y-122751605D01*
X167171635Y-122598720D01*
X167366220Y-122404135D01*
X167519105Y-122175327D01*
X167624414Y-121921090D01*
X167678100Y-121651192D01*
X167678100Y-121376008D01*
X167624414Y-121106110D01*
X167519105Y-120851873D01*
X167366220Y-120623065D01*
X167171635Y-120428480D01*
X166942827Y-120275595D01*
X166865585Y-120243600D01*
X166942827Y-120211605D01*
X167171635Y-120058720D01*
X167366220Y-119864135D01*
X167519105Y-119635327D01*
X167624414Y-119381090D01*
X167678100Y-119111192D01*
X167678100Y-118836008D01*
X167624414Y-118566110D01*
X167519105Y-118311873D01*
X167366220Y-118083065D01*
X167171635Y-117888480D01*
X166942827Y-117735595D01*
X166865585Y-117703600D01*
X166942827Y-117671605D01*
X167171635Y-117518720D01*
X167366220Y-117324135D01*
X167519105Y-117095327D01*
X167624414Y-116841090D01*
X167678100Y-116571192D01*
X167678100Y-116296008D01*
X167624414Y-116026110D01*
X167519105Y-115771873D01*
X167366220Y-115543065D01*
X167171635Y-115348480D01*
X166942827Y-115195595D01*
X166871157Y-115165908D01*
X166884123Y-115161236D01*
X167000080Y-115099256D01*
X167067060Y-114859165D01*
X166281100Y-114073205D01*
X165495140Y-114859165D01*
X165562120Y-115099256D01*
X165697860Y-115163085D01*
X165619373Y-115195595D01*
X165390565Y-115348480D01*
X165195980Y-115543065D01*
X165043095Y-115771873D01*
X164937786Y-116026110D01*
X164884100Y-116296008D01*
X152438100Y-116296008D01*
X152384414Y-116026110D01*
X152279105Y-115771873D01*
X152126220Y-115543065D01*
X151931635Y-115348480D01*
X151702827Y-115195595D01*
X151625585Y-115163600D01*
X151702827Y-115131605D01*
X151931635Y-114978720D01*
X152126220Y-114784135D01*
X152279105Y-114555327D01*
X152384414Y-114301090D01*
X152438100Y-114031192D01*
X152438100Y-113965617D01*
X164879190Y-113965617D01*
X164920178Y-114237733D01*
X165013464Y-114496623D01*
X165075444Y-114612580D01*
X165315535Y-114679560D01*
X166101495Y-113893600D01*
X166460705Y-113893600D01*
X167246665Y-114679560D01*
X167486756Y-114612580D01*
X167603856Y-114363552D01*
X167670123Y-114096465D01*
X167674176Y-114010000D01*
X170057815Y-114010000D01*
X170086487Y-114301111D01*
X170171401Y-114581034D01*
X170309294Y-114839014D01*
X170494866Y-115065134D01*
X170524687Y-115089607D01*
X170455820Y-115110498D01*
X170345506Y-115169463D01*
X170248815Y-115248815D01*
X170169463Y-115345506D01*
X170110498Y-115455820D01*
X170074188Y-115575518D01*
X170061928Y-115700000D01*
X170061928Y-117400000D01*
X170074188Y-117524482D01*
X170110498Y-117644180D01*
X170169463Y-117754494D01*
X170248815Y-117851185D01*
X170345506Y-117930537D01*
X170455820Y-117989502D01*
X170575518Y-118025812D01*
X170700000Y-118038072D01*
X172400000Y-118038072D01*
X172524482Y-118025812D01*
X172644180Y-117989502D01*
X172754494Y-117930537D01*
X172851185Y-117851185D01*
X172930537Y-117754494D01*
X172989502Y-117644180D01*
X173025812Y-117524482D01*
X173038072Y-117400000D01*
X173038072Y-115700000D01*
X173025812Y-115575518D01*
X172989502Y-115455820D01*
X172930537Y-115345506D01*
X172851185Y-115248815D01*
X172754494Y-115169463D01*
X172644180Y-115110498D01*
X172575313Y-115089607D01*
X172605134Y-115065134D01*
X172790706Y-114839014D01*
X172928599Y-114581034D01*
X173013513Y-114301111D01*
X173042185Y-114010000D01*
X173013513Y-113718889D01*
X172928599Y-113438966D01*
X172790706Y-113180986D01*
X172605134Y-112954866D01*
X172379014Y-112769294D01*
X172314477Y-112734799D01*
X172431355Y-112665178D01*
X172647588Y-112470269D01*
X172821641Y-112236920D01*
X172946825Y-111974099D01*
X172991476Y-111826890D01*
X172870155Y-111597000D01*
X171677000Y-111597000D01*
X171677000Y-111617000D01*
X171423000Y-111617000D01*
X171423000Y-111597000D01*
X170229845Y-111597000D01*
X170108524Y-111826890D01*
X170153175Y-111974099D01*
X170278359Y-112236920D01*
X170452412Y-112470269D01*
X170668645Y-112665178D01*
X170785523Y-112734799D01*
X170720986Y-112769294D01*
X170494866Y-112954866D01*
X170309294Y-113180986D01*
X170171401Y-113438966D01*
X170086487Y-113718889D01*
X170057815Y-114010000D01*
X167674176Y-114010000D01*
X167683010Y-113821583D01*
X167642022Y-113549467D01*
X167548736Y-113290577D01*
X167486756Y-113174620D01*
X167246665Y-113107640D01*
X166460705Y-113893600D01*
X166101495Y-113893600D01*
X165315535Y-113107640D01*
X165075444Y-113174620D01*
X164958344Y-113423648D01*
X164892077Y-113690735D01*
X164879190Y-113965617D01*
X152438100Y-113965617D01*
X152438100Y-113756008D01*
X152384414Y-113486110D01*
X152279105Y-113231873D01*
X152126220Y-113003065D01*
X151931635Y-112808480D01*
X151702827Y-112655595D01*
X151625585Y-112623600D01*
X151702827Y-112591605D01*
X151931635Y-112438720D01*
X152126220Y-112244135D01*
X152279105Y-112015327D01*
X152384414Y-111761090D01*
X152438100Y-111491192D01*
X152438100Y-111216008D01*
X164884100Y-111216008D01*
X164884100Y-111491192D01*
X164937786Y-111761090D01*
X165043095Y-112015327D01*
X165195980Y-112244135D01*
X165390565Y-112438720D01*
X165619373Y-112591605D01*
X165691043Y-112621292D01*
X165678077Y-112625964D01*
X165562120Y-112687944D01*
X165495140Y-112928035D01*
X166281100Y-113713995D01*
X167067060Y-112928035D01*
X167000080Y-112687944D01*
X166864340Y-112624115D01*
X166942827Y-112591605D01*
X167171635Y-112438720D01*
X167366220Y-112244135D01*
X167519105Y-112015327D01*
X167624414Y-111761090D01*
X167678100Y-111491192D01*
X167678100Y-111216008D01*
X167624414Y-110946110D01*
X167519105Y-110691873D01*
X167366220Y-110463065D01*
X167171635Y-110268480D01*
X166942827Y-110115595D01*
X166688590Y-110010286D01*
X166418692Y-109956600D01*
X166143508Y-109956600D01*
X165873610Y-110010286D01*
X165619373Y-110115595D01*
X165390565Y-110268480D01*
X165195980Y-110463065D01*
X165043095Y-110691873D01*
X164937786Y-110946110D01*
X164884100Y-111216008D01*
X152438100Y-111216008D01*
X152384414Y-110946110D01*
X152279105Y-110691873D01*
X152126220Y-110463065D01*
X151931635Y-110268480D01*
X151702827Y-110115595D01*
X151448590Y-110010286D01*
X151178692Y-109956600D01*
X150903508Y-109956600D01*
X150633610Y-110010286D01*
X150379373Y-110115595D01*
X150150565Y-110268480D01*
X149955980Y-110463065D01*
X149803095Y-110691873D01*
X149697786Y-110946110D01*
X149644100Y-111216008D01*
X145313072Y-111216008D01*
X145313072Y-110700000D01*
X145300812Y-110575518D01*
X145264502Y-110455820D01*
X145205537Y-110345506D01*
X145126185Y-110248815D01*
X145029494Y-110169463D01*
X144919180Y-110110498D01*
X144850313Y-110089607D01*
X144880134Y-110065134D01*
X145065706Y-109839014D01*
X145203599Y-109581034D01*
X145288513Y-109301111D01*
X145289913Y-109286890D01*
X170108524Y-109286890D01*
X170153175Y-109434099D01*
X170278359Y-109696920D01*
X170452412Y-109930269D01*
X170668645Y-110125178D01*
X170794255Y-110200000D01*
X170668645Y-110274822D01*
X170452412Y-110469731D01*
X170278359Y-110703080D01*
X170153175Y-110965901D01*
X170108524Y-111113110D01*
X170229845Y-111343000D01*
X171423000Y-111343000D01*
X171423000Y-109057000D01*
X171677000Y-109057000D01*
X171677000Y-111343000D01*
X172870155Y-111343000D01*
X172991476Y-111113110D01*
X172946825Y-110965901D01*
X172821641Y-110703080D01*
X172647588Y-110469731D01*
X172431355Y-110274822D01*
X172305745Y-110200000D01*
X172431355Y-110125178D01*
X172647588Y-109930269D01*
X172821641Y-109696920D01*
X172946825Y-109434099D01*
X172991476Y-109286890D01*
X172870155Y-109057000D01*
X171677000Y-109057000D01*
X171423000Y-109057000D01*
X170229845Y-109057000D01*
X170108524Y-109286890D01*
X145289913Y-109286890D01*
X145317185Y-109010000D01*
X145288513Y-108718889D01*
X145244292Y-108573110D01*
X170108524Y-108573110D01*
X170229845Y-108803000D01*
X171423000Y-108803000D01*
X171423000Y-107609186D01*
X171677000Y-107609186D01*
X171677000Y-108803000D01*
X172870155Y-108803000D01*
X172991476Y-108573110D01*
X172946825Y-108425901D01*
X172821641Y-108163080D01*
X172647588Y-107929731D01*
X172431355Y-107734822D01*
X172181252Y-107585843D01*
X171906891Y-107488519D01*
X171677000Y-107609186D01*
X171423000Y-107609186D01*
X171193109Y-107488519D01*
X170918748Y-107585843D01*
X170668645Y-107734822D01*
X170452412Y-107929731D01*
X170278359Y-108163080D01*
X170153175Y-108425901D01*
X170108524Y-108573110D01*
X145244292Y-108573110D01*
X145203599Y-108438966D01*
X145065706Y-108180986D01*
X144880134Y-107954866D01*
X144654014Y-107769294D01*
X144599209Y-107740000D01*
X144654014Y-107710706D01*
X144880134Y-107525134D01*
X145065706Y-107299014D01*
X145203599Y-107041034D01*
X145288513Y-106761111D01*
X145317185Y-106470000D01*
X145288513Y-106178889D01*
X145203599Y-105898966D01*
X145065706Y-105640986D01*
X144880134Y-105414866D01*
X144654014Y-105229294D01*
X144396034Y-105091401D01*
X144116111Y-105006487D01*
X143897950Y-104985000D01*
X143752050Y-104985000D01*
X143533889Y-105006487D01*
X143253966Y-105091401D01*
X142995986Y-105229294D01*
X142769866Y-105414866D01*
X142584294Y-105640986D01*
X142446401Y-105898966D01*
X142361487Y-106178889D01*
X142332815Y-106470000D01*
X141660000Y-106470000D01*
X141660000Y-104675000D01*
X168592815Y-104675000D01*
X168621487Y-104966111D01*
X168706401Y-105246034D01*
X168844294Y-105504014D01*
X169029866Y-105730134D01*
X169255986Y-105915706D01*
X169513966Y-106053599D01*
X169793889Y-106138513D01*
X170012050Y-106160000D01*
X170157950Y-106160000D01*
X170376111Y-106138513D01*
X170656034Y-106053599D01*
X170914014Y-105915706D01*
X171140134Y-105730134D01*
X171164607Y-105700313D01*
X171185498Y-105769180D01*
X171244463Y-105879494D01*
X171323815Y-105976185D01*
X171420506Y-106055537D01*
X171530820Y-106114502D01*
X171650518Y-106150812D01*
X171775000Y-106163072D01*
X172339250Y-106160000D01*
X172498000Y-106001250D01*
X172498000Y-104802000D01*
X172752000Y-104802000D01*
X172752000Y-106001250D01*
X172910750Y-106160000D01*
X173475000Y-106163072D01*
X173599482Y-106150812D01*
X173719180Y-106114502D01*
X173829494Y-106055537D01*
X173926185Y-105976185D01*
X174005537Y-105879494D01*
X174064502Y-105769180D01*
X174100812Y-105649482D01*
X174113072Y-105525000D01*
X174110000Y-104960750D01*
X173951250Y-104802000D01*
X172752000Y-104802000D01*
X172498000Y-104802000D01*
X172478000Y-104802000D01*
X172478000Y-104548000D01*
X172498000Y-104548000D01*
X172498000Y-103348750D01*
X172752000Y-103348750D01*
X172752000Y-104548000D01*
X173951250Y-104548000D01*
X174110000Y-104389250D01*
X174113072Y-103825000D01*
X174100812Y-103700518D01*
X174064502Y-103580820D01*
X174005537Y-103470506D01*
X173926185Y-103373815D01*
X173829494Y-103294463D01*
X173719180Y-103235498D01*
X173599482Y-103199188D01*
X173475000Y-103186928D01*
X172910750Y-103190000D01*
X172752000Y-103348750D01*
X172498000Y-103348750D01*
X172339250Y-103190000D01*
X171775000Y-103186928D01*
X171650518Y-103199188D01*
X171530820Y-103235498D01*
X171420506Y-103294463D01*
X171323815Y-103373815D01*
X171244463Y-103470506D01*
X171185498Y-103580820D01*
X171164607Y-103649687D01*
X171140134Y-103619866D01*
X170914014Y-103434294D01*
X170656034Y-103296401D01*
X170376111Y-103211487D01*
X170157950Y-103190000D01*
X170012050Y-103190000D01*
X169793889Y-103211487D01*
X169513966Y-103296401D01*
X169255986Y-103434294D01*
X169029866Y-103619866D01*
X168844294Y-103845986D01*
X168706401Y-104103966D01*
X168621487Y-104383889D01*
X168592815Y-104675000D01*
X141660000Y-104675000D01*
X141660000Y-100685000D01*
X174290000Y-100685000D01*
X174290001Y-161815000D01*
X174290001Y-161815000D01*
G37*
X174290001Y-161815000D02*
X146236262Y-161815000D01*
X146370134Y-161705134D01*
X146555706Y-161479014D01*
X146693599Y-161221034D01*
X146778513Y-160941111D01*
X146807185Y-160650000D01*
X146778513Y-160358889D01*
X146693599Y-160078966D01*
X146555706Y-159820986D01*
X146370134Y-159594866D01*
X146144014Y-159409294D01*
X145886034Y-159271401D01*
X145606111Y-159186487D01*
X145387950Y-159165000D01*
X145242050Y-159165000D01*
X145023889Y-159186487D01*
X144743966Y-159271401D01*
X144485986Y-159409294D01*
X144259866Y-159594866D01*
X144235393Y-159624687D01*
X144214502Y-159555820D01*
X144155537Y-159445506D01*
X144076185Y-159348815D01*
X143979494Y-159269463D01*
X143869180Y-159210498D01*
X143749482Y-159174188D01*
X143625000Y-159161928D01*
X143060750Y-159165000D01*
X142902000Y-159323750D01*
X142902000Y-160523000D01*
X142922000Y-160523000D01*
X142922000Y-160777000D01*
X142902000Y-160777000D01*
X142902000Y-160797000D01*
X142648000Y-160797000D01*
X142648000Y-160777000D01*
X142628000Y-160777000D01*
X142628000Y-160523000D01*
X142648000Y-160523000D01*
X142648000Y-159323750D01*
X142489250Y-159165000D01*
X141925000Y-159161928D01*
X141800518Y-159174188D01*
X141680820Y-159210498D01*
X141660000Y-159221627D01*
X141660000Y-142575000D01*
X162635719Y-142575000D01*
X162640000Y-142618469D01*
X162640001Y-146406521D01*
X162635719Y-146450000D01*
X162640000Y-146493469D01*
X162640000Y-146592089D01*
X162675932Y-146772729D01*
X162746414Y-146942889D01*
X162848738Y-147096028D01*
X162978972Y-147226262D01*
X163132111Y-147328586D01*
X163302271Y-147399068D01*
X163482911Y-147435000D01*
X163667089Y-147435000D01*
X163847729Y-147399068D01*
X164017889Y-147328586D01*
X164171028Y-147226262D01*
X164301262Y-147096028D01*
X164403586Y-146942889D01*
X164474068Y-146772729D01*
X164510000Y-146592089D01*
X164510000Y-146407911D01*
X164474068Y-146227271D01*
X164410000Y-146072596D01*
X164410000Y-142952404D01*
X164474068Y-142797729D01*
X164510000Y-142617089D01*
X164510000Y-142432911D01*
X164474068Y-142252271D01*
X164403586Y-142082111D01*
X164301262Y-141928972D01*
X164171028Y-141798738D01*
X164017889Y-141696414D01*
X163847729Y-141625932D01*
X163667089Y-141590000D01*
X163482911Y-141590000D01*
X163302271Y-141625932D01*
X163132111Y-141696414D01*
X162978972Y-141798738D01*
X162848738Y-141928972D01*
X162746414Y-142082111D01*
X162675932Y-142252271D01*
X162640000Y-142432911D01*
X162640000Y-142531531D01*
X162635719Y-142575000D01*
X141660000Y-142575000D01*
X141660000Y-126390000D01*
X142332815Y-126390000D01*
X142361487Y-126681111D01*
X142446401Y-126961034D01*
X142584294Y-127219014D01*
X142769866Y-127445134D01*
X142995986Y-127630706D01*
X143050791Y-127660000D01*
X142995986Y-127689294D01*
X142769866Y-127874866D01*
X142584294Y-128100986D01*
X142446401Y-128358966D01*
X142361487Y-128638889D01*
X142332815Y-128930000D01*
X142361487Y-129221111D01*
X142446401Y-129501034D01*
X142584294Y-129759014D01*
X142769866Y-129985134D01*
X142995986Y-130170706D01*
X143050791Y-130200000D01*
X142995986Y-130229294D01*
X142769866Y-130414866D01*
X142584294Y-130640986D01*
X142446401Y-130898966D01*
X142361487Y-131178889D01*
X142332815Y-131470000D01*
X142361487Y-131761111D01*
X142446401Y-132041034D01*
X142584294Y-132299014D01*
X142769866Y-132525134D01*
X142995986Y-132710706D01*
X143050791Y-132740000D01*
X142995986Y-132769294D01*
X142769866Y-132954866D01*
X142584294Y-133180986D01*
X142446401Y-133438966D01*
X142361487Y-133718889D01*
X142332815Y-134010000D01*
X142361487Y-134301111D01*
X142446401Y-134581034D01*
X142584294Y-134839014D01*
X142769866Y-135065134D01*
X142799687Y-135089607D01*
X142730820Y-135110498D01*
X142620506Y-135169463D01*
X142523815Y-135248815D01*
X142444463Y-135345506D01*
X142385498Y-135455820D01*
X142349188Y-135575518D01*
X142336928Y-135700000D01*
X142336928Y-137400000D01*
X142349188Y-137524482D01*
X142385498Y-137644180D01*
X142444463Y-137754494D01*
X142523815Y-137851185D01*
X142620506Y-137930537D01*
X142730820Y-137989502D01*
X142850518Y-138025812D01*
X142975000Y-138038072D01*
X144675000Y-138038072D01*
X144799482Y-138025812D01*
X144919180Y-137989502D01*
X145029494Y-137930537D01*
X145126185Y-137851185D01*
X145205537Y-137754494D01*
X145264502Y-137644180D01*
X145300812Y-137524482D01*
X145313072Y-137400000D01*
X145313072Y-135700000D01*
X145300812Y-135575518D01*
X145264502Y-135455820D01*
X145205537Y-135345506D01*
X145126185Y-135248815D01*
X145029494Y-135169463D01*
X144919180Y-135110498D01*
X144850313Y-135089607D01*
X144880134Y-135065134D01*
X145065706Y-134839014D01*
X145203599Y-134581034D01*
X145288513Y-134301111D01*
X145317185Y-134010000D01*
X145288513Y-133718889D01*
X145203599Y-133438966D01*
X145065706Y-133180986D01*
X144880134Y-132954866D01*
X144654014Y-132769294D01*
X144599209Y-132740000D01*
X144654014Y-132710706D01*
X144880134Y-132525134D01*
X145065706Y-132299014D01*
X145203599Y-132041034D01*
X145288513Y-131761111D01*
X145317185Y-131470000D01*
X145288513Y-131178889D01*
X145203599Y-130898966D01*
X145065706Y-130640986D01*
X144880134Y-130414866D01*
X144654014Y-130229294D01*
X144599209Y-130200000D01*
X144654014Y-130170706D01*
X144880134Y-129985134D01*
X145065706Y-129759014D01*
X145203599Y-129501034D01*
X145288513Y-129221111D01*
X145317185Y-128930000D01*
X145288513Y-128638889D01*
X145203599Y-128358966D01*
X145065706Y-128100986D01*
X144880134Y-127874866D01*
X144654014Y-127689294D01*
X144599209Y-127660000D01*
X144654014Y-127630706D01*
X144880134Y-127445134D01*
X145065706Y-127219014D01*
X145203599Y-126961034D01*
X145288513Y-126681111D01*
X145317185Y-126390000D01*
X145288513Y-126098889D01*
X145203599Y-125818966D01*
X145065706Y-125560986D01*
X144880134Y-125334866D01*
X144654014Y-125149294D01*
X144396034Y-125011401D01*
X144116111Y-124926487D01*
X143897950Y-124905000D01*
X143752050Y-124905000D01*
X143533889Y-124926487D01*
X143253966Y-125011401D01*
X142995986Y-125149294D01*
X142769866Y-125334866D01*
X142584294Y-125560986D01*
X142446401Y-125818966D01*
X142361487Y-126098889D01*
X142332815Y-126390000D01*
X141660000Y-126390000D01*
X141660000Y-120090000D01*
X142332815Y-120090000D01*
X142361487Y-120381111D01*
X142446401Y-120661034D01*
X142584294Y-120919014D01*
X142769866Y-121145134D01*
X142995986Y-121330706D01*
X143253966Y-121468599D01*
X143533889Y-121553513D01*
X143752050Y-121575000D01*
X143897950Y-121575000D01*
X144116111Y-121553513D01*
X144396034Y-121468599D01*
X144569259Y-121376008D01*
X149644100Y-121376008D01*
X149644100Y-121651192D01*
X149697786Y-121921090D01*
X149803095Y-122175327D01*
X149955980Y-122404135D01*
X150150565Y-122598720D01*
X150379373Y-122751605D01*
X150456615Y-122783600D01*
X150379373Y-122815595D01*
X150150565Y-122968480D01*
X149955980Y-123163065D01*
X149803095Y-123391873D01*
X149697786Y-123646110D01*
X149644100Y-123916008D01*
X149644100Y-124191192D01*
X149697786Y-124461090D01*
X149803095Y-124715327D01*
X149955980Y-124944135D01*
X150150565Y-125138720D01*
X150379373Y-125291605D01*
X150456615Y-125323600D01*
X150379373Y-125355595D01*
X150150565Y-125508480D01*
X149955980Y-125703065D01*
X149803095Y-125931873D01*
X149697786Y-126186110D01*
X149644100Y-126456008D01*
X149644100Y-126731192D01*
X149697786Y-127001090D01*
X149803095Y-127255327D01*
X149955980Y-127484135D01*
X150150565Y-127678720D01*
X150379373Y-127831605D01*
X150456615Y-127863600D01*
X150379373Y-127895595D01*
X150150565Y-128048480D01*
X149955980Y-128243065D01*
X149803095Y-128471873D01*
X149697786Y-128726110D01*
X149644100Y-128996008D01*
X149644100Y-129271192D01*
X149697786Y-129541090D01*
X149803095Y-129795327D01*
X149955980Y-130024135D01*
X150150565Y-130218720D01*
X150379373Y-130371605D01*
X150456615Y-130403600D01*
X150379373Y-130435595D01*
X150150565Y-130588480D01*
X149955980Y-130783065D01*
X149803095Y-131011873D01*
X149697786Y-131266110D01*
X149644100Y-131536008D01*
X149644100Y-131811192D01*
X149697786Y-132081090D01*
X149803095Y-132335327D01*
X149955980Y-132564135D01*
X150150565Y-132758720D01*
X150379373Y-132911605D01*
X150456615Y-132943600D01*
X150379373Y-132975595D01*
X150150565Y-133128480D01*
X149955980Y-133323065D01*
X149803095Y-133551873D01*
X149697786Y-133806110D01*
X149644100Y-134076008D01*
X149644100Y-134351192D01*
X149697786Y-134621090D01*
X149803095Y-134875327D01*
X149955980Y-135104135D01*
X150150565Y-135298720D01*
X150379373Y-135451605D01*
X150456615Y-135483600D01*
X150379373Y-135515595D01*
X150150565Y-135668480D01*
X149955980Y-135863065D01*
X149803095Y-136091873D01*
X149697786Y-136346110D01*
X149644100Y-136616008D01*
X149644100Y-136891192D01*
X149697786Y-137161090D01*
X149803095Y-137415327D01*
X149955980Y-137644135D01*
X150150565Y-137838720D01*
X150379373Y-137991605D01*
X150456615Y-138023600D01*
X150379373Y-138055595D01*
X150150565Y-138208480D01*
X149955980Y-138403065D01*
X149803095Y-138631873D01*
X149697786Y-138886110D01*
X149644100Y-139156008D01*
X149644100Y-139431192D01*
X149697786Y-139701090D01*
X149803095Y-139955327D01*
X149955980Y-140184135D01*
X150150565Y-140378720D01*
X150379373Y-140531605D01*
X150633610Y-140636914D01*
X150903508Y-140690600D01*
X151178692Y-140690600D01*
X151448590Y-140636914D01*
X151702827Y-140531605D01*
X151931635Y-140378720D01*
X152126220Y-140184135D01*
X152279105Y-139955327D01*
X152384414Y-139701090D01*
X152438100Y-139431192D01*
X152438100Y-139156008D01*
X152384414Y-138886110D01*
X152279105Y-138631873D01*
X152126220Y-138403065D01*
X151931635Y-138208480D01*
X151702827Y-138055595D01*
X151625585Y-138023600D01*
X151702827Y-137991605D01*
X151931635Y-137838720D01*
X152126220Y-137644135D01*
X152279105Y-137415327D01*
X152344309Y-137257911D01*
X153215000Y-137257911D01*
X153215000Y-137442089D01*
X153250932Y-137622729D01*
X153265000Y-137656693D01*
X153265001Y-141268305D01*
X153250932Y-141302271D01*
X153215000Y-141482911D01*
X153215000Y-141667089D01*
X153250932Y-141847729D01*
X153321414Y-142017889D01*
X153423738Y-142171028D01*
X153553972Y-142301262D01*
X153707111Y-142403586D01*
X153877271Y-142474068D01*
X154057911Y-142510000D01*
X154242089Y-142510000D01*
X154422729Y-142474068D01*
X154592889Y-142403586D01*
X154746028Y-142301262D01*
X154876262Y-142171028D01*
X154978586Y-142017889D01*
X155049068Y-141847729D01*
X155085000Y-141667089D01*
X155085000Y-141482911D01*
X155049068Y-141302271D01*
X155035000Y-141268308D01*
X155035000Y-137656692D01*
X155049068Y-137622729D01*
X155085000Y-137442089D01*
X155085000Y-137257911D01*
X155049068Y-137077271D01*
X154978586Y-136907111D01*
X154876262Y-136753972D01*
X154746028Y-136623738D01*
X154592889Y-136521414D01*
X154422729Y-136450932D01*
X154242089Y-136415000D01*
X154057911Y-136415000D01*
X153877271Y-136450932D01*
X153707111Y-136521414D01*
X153553972Y-136623738D01*
X153423738Y-136753972D01*
X153321414Y-136907111D01*
X153250932Y-137077271D01*
X153215000Y-137257911D01*
X152344309Y-137257911D01*
X152384414Y-137161090D01*
X152438100Y-136891192D01*
X152438100Y-136616008D01*
X152384414Y-136346110D01*
X152279105Y-136091873D01*
X152126220Y-135863065D01*
X151931635Y-135668480D01*
X151702827Y-135515595D01*
X151625585Y-135483600D01*
X151702827Y-135451605D01*
X151931635Y-135298720D01*
X152126220Y-135104135D01*
X152279105Y-134875327D01*
X152384414Y-134621090D01*
X152438100Y-134351192D01*
X152438100Y-134076008D01*
X152384414Y-133806110D01*
X152279105Y-133551873D01*
X152126220Y-133323065D01*
X151931635Y-133128480D01*
X151702827Y-132975595D01*
X151625585Y-132943600D01*
X151702827Y-132911605D01*
X151931635Y-132758720D01*
X152126220Y-132564135D01*
X152279105Y-132335327D01*
X152384414Y-132081090D01*
X152438100Y-131811192D01*
X152438100Y-131536008D01*
X152384414Y-131266110D01*
X152279105Y-131011873D01*
X152126220Y-130783065D01*
X151931635Y-130588480D01*
X151702827Y-130435595D01*
X151625585Y-130403600D01*
X151702827Y-130371605D01*
X151931635Y-130218720D01*
X152126220Y-130024135D01*
X152279105Y-129795327D01*
X152384414Y-129541090D01*
X152438100Y-129271192D01*
X152438100Y-128996008D01*
X152384414Y-128726110D01*
X152279105Y-128471873D01*
X152126220Y-128243065D01*
X151931635Y-128048480D01*
X151702827Y-127895595D01*
X151625585Y-127863600D01*
X151702827Y-127831605D01*
X151931635Y-127678720D01*
X152126220Y-127484135D01*
X152279105Y-127255327D01*
X152384414Y-127001090D01*
X152438100Y-126731192D01*
X152438100Y-126456008D01*
X152384414Y-126186110D01*
X152279105Y-125931873D01*
X152126220Y-125703065D01*
X151931635Y-125508480D01*
X151702827Y-125355595D01*
X151625585Y-125323600D01*
X151702827Y-125291605D01*
X151931635Y-125138720D01*
X152126220Y-124944135D01*
X152279105Y-124715327D01*
X152384414Y-124461090D01*
X152438100Y-124191192D01*
X152438100Y-123916008D01*
X152384414Y-123646110D01*
X152279105Y-123391873D01*
X152126220Y-123163065D01*
X151931635Y-122968480D01*
X151702827Y-122815595D01*
X151625585Y-122783600D01*
X151702827Y-122751605D01*
X151931635Y-122598720D01*
X152126220Y-122404135D01*
X152279105Y-122175327D01*
X152384414Y-121921090D01*
X152438100Y-121651192D01*
X152438100Y-121376008D01*
X152384414Y-121106110D01*
X152279105Y-120851873D01*
X152126220Y-120623065D01*
X151931635Y-120428480D01*
X151702827Y-120275595D01*
X151631157Y-120245908D01*
X151644123Y-120241236D01*
X151760080Y-120179256D01*
X151827060Y-119939165D01*
X151041100Y-119153205D01*
X150255140Y-119939165D01*
X150322120Y-120179256D01*
X150457860Y-120243085D01*
X150379373Y-120275595D01*
X150150565Y-120428480D01*
X149955980Y-120623065D01*
X149803095Y-120851873D01*
X149697786Y-121106110D01*
X149644100Y-121376008D01*
X144569259Y-121376008D01*
X144654014Y-121330706D01*
X144880134Y-121145134D01*
X145065706Y-120919014D01*
X145203599Y-120661034D01*
X145288513Y-120381111D01*
X145317185Y-120090000D01*
X145288513Y-119798889D01*
X145203599Y-119518966D01*
X145065706Y-119260986D01*
X144888958Y-119045617D01*
X149639190Y-119045617D01*
X149680178Y-119317733D01*
X149773464Y-119576623D01*
X149835444Y-119692580D01*
X150075535Y-119759560D01*
X150861495Y-118973600D01*
X151220705Y-118973600D01*
X152006665Y-119759560D01*
X152246756Y-119692580D01*
X152363856Y-119443552D01*
X152430123Y-119176465D01*
X152443010Y-118901583D01*
X152402022Y-118629467D01*
X152308736Y-118370577D01*
X152246756Y-118254620D01*
X152006665Y-118187640D01*
X151220705Y-118973600D01*
X150861495Y-118973600D01*
X150075535Y-118187640D01*
X149835444Y-118254620D01*
X149718344Y-118503648D01*
X149652077Y-118770735D01*
X149639190Y-119045617D01*
X144888958Y-119045617D01*
X144880134Y-119034866D01*
X144850313Y-119010393D01*
X144919180Y-118989502D01*
X145029494Y-118930537D01*
X145126185Y-118851185D01*
X145205537Y-118754494D01*
X145264502Y-118644180D01*
X145300812Y-118524482D01*
X145313072Y-118400000D01*
X145310000Y-117835750D01*
X145151250Y-117677000D01*
X143952000Y-117677000D01*
X143952000Y-117697000D01*
X143698000Y-117697000D01*
X143698000Y-117677000D01*
X142498750Y-117677000D01*
X142340000Y-117835750D01*
X142336928Y-118400000D01*
X142349188Y-118524482D01*
X142385498Y-118644180D01*
X142444463Y-118754494D01*
X142523815Y-118851185D01*
X142620506Y-118930537D01*
X142730820Y-118989502D01*
X142799687Y-119010393D01*
X142769866Y-119034866D01*
X142584294Y-119260986D01*
X142446401Y-119518966D01*
X142361487Y-119798889D01*
X142332815Y-120090000D01*
X141660000Y-120090000D01*
X141660000Y-116700000D01*
X142336928Y-116700000D01*
X142340000Y-117264250D01*
X142498750Y-117423000D01*
X143698000Y-117423000D01*
X143698000Y-116223750D01*
X143952000Y-116223750D01*
X143952000Y-117423000D01*
X145151250Y-117423000D01*
X145310000Y-117264250D01*
X145313072Y-116700000D01*
X145300812Y-116575518D01*
X145264502Y-116455820D01*
X145205537Y-116345506D01*
X145126185Y-116248815D01*
X145029494Y-116169463D01*
X144919180Y-116110498D01*
X144799482Y-116074188D01*
X144675000Y-116061928D01*
X144110750Y-116065000D01*
X143952000Y-116223750D01*
X143698000Y-116223750D01*
X143539250Y-116065000D01*
X142975000Y-116061928D01*
X142850518Y-116074188D01*
X142730820Y-116110498D01*
X142620506Y-116169463D01*
X142523815Y-116248815D01*
X142444463Y-116345506D01*
X142385498Y-116455820D01*
X142349188Y-116575518D01*
X142336928Y-116700000D01*
X141660000Y-116700000D01*
X141660000Y-106470000D01*
X142332815Y-106470000D01*
X142361487Y-106761111D01*
X142446401Y-107041034D01*
X142584294Y-107299014D01*
X142769866Y-107525134D01*
X142995986Y-107710706D01*
X143050791Y-107740000D01*
X142995986Y-107769294D01*
X142769866Y-107954866D01*
X142584294Y-108180986D01*
X142446401Y-108438966D01*
X142361487Y-108718889D01*
X142332815Y-109010000D01*
X142361487Y-109301111D01*
X142446401Y-109581034D01*
X142584294Y-109839014D01*
X142769866Y-110065134D01*
X142799687Y-110089607D01*
X142730820Y-110110498D01*
X142620506Y-110169463D01*
X142523815Y-110248815D01*
X142444463Y-110345506D01*
X142385498Y-110455820D01*
X142349188Y-110575518D01*
X142336928Y-110700000D01*
X142336928Y-112400000D01*
X142349188Y-112524482D01*
X142385498Y-112644180D01*
X142444463Y-112754494D01*
X142523815Y-112851185D01*
X142620506Y-112930537D01*
X142730820Y-112989502D01*
X142850518Y-113025812D01*
X142975000Y-113038072D01*
X144675000Y-113038072D01*
X144799482Y-113025812D01*
X144919180Y-112989502D01*
X145029494Y-112930537D01*
X145126185Y-112851185D01*
X145205537Y-112754494D01*
X145264502Y-112644180D01*
X145300812Y-112524482D01*
X145313072Y-112400000D01*
X145313072Y-111216008D01*
X149644100Y-111216008D01*
X149644100Y-111491192D01*
X149697786Y-111761090D01*
X149803095Y-112015327D01*
X149955980Y-112244135D01*
X150150565Y-112438720D01*
X150379373Y-112591605D01*
X150456615Y-112623600D01*
X150379373Y-112655595D01*
X150150565Y-112808480D01*
X149955980Y-113003065D01*
X149803095Y-113231873D01*
X149697786Y-113486110D01*
X149644100Y-113756008D01*
X149644100Y-114031192D01*
X149697786Y-114301090D01*
X149803095Y-114555327D01*
X149955980Y-114784135D01*
X150150565Y-114978720D01*
X150379373Y-115131605D01*
X150456615Y-115163600D01*
X150379373Y-115195595D01*
X150150565Y-115348480D01*
X149955980Y-115543065D01*
X149803095Y-115771873D01*
X149697786Y-116026110D01*
X149644100Y-116296008D01*
X149644100Y-116571192D01*
X149697786Y-116841090D01*
X149803095Y-117095327D01*
X149955980Y-117324135D01*
X150150565Y-117518720D01*
X150379373Y-117671605D01*
X150451043Y-117701292D01*
X150438077Y-117705964D01*
X150322120Y-117767944D01*
X150255140Y-118008035D01*
X151041100Y-118793995D01*
X151827060Y-118008035D01*
X151760080Y-117767944D01*
X151624340Y-117704115D01*
X151702827Y-117671605D01*
X151931635Y-117518720D01*
X152126220Y-117324135D01*
X152279105Y-117095327D01*
X152384414Y-116841090D01*
X152438100Y-116571192D01*
X152438100Y-116296008D01*
X164884100Y-116296008D01*
X164884100Y-116571192D01*
X164937786Y-116841090D01*
X165043095Y-117095327D01*
X165195980Y-117324135D01*
X165390565Y-117518720D01*
X165619373Y-117671605D01*
X165696615Y-117703600D01*
X165619373Y-117735595D01*
X165390565Y-117888480D01*
X165195980Y-118083065D01*
X165043095Y-118311873D01*
X164937786Y-118566110D01*
X164884100Y-118836008D01*
X164884100Y-119111192D01*
X164937786Y-119381090D01*
X165043095Y-119635327D01*
X165195980Y-119864135D01*
X165390565Y-120058720D01*
X165619373Y-120211605D01*
X165696615Y-120243600D01*
X165619373Y-120275595D01*
X165390565Y-120428480D01*
X165195980Y-120623065D01*
X165043095Y-120851873D01*
X164937786Y-121106110D01*
X164884100Y-121376008D01*
X164884100Y-121651192D01*
X164937786Y-121921090D01*
X165043095Y-122175327D01*
X165195980Y-122404135D01*
X165390565Y-122598720D01*
X165619373Y-122751605D01*
X165696615Y-122783600D01*
X165619373Y-122815595D01*
X165390565Y-122968480D01*
X165195980Y-123163065D01*
X165043095Y-123391873D01*
X164937786Y-123646110D01*
X164884100Y-123916008D01*
X164884100Y-124191192D01*
X164937786Y-124461090D01*
X165043095Y-124715327D01*
X165195980Y-124944135D01*
X165390565Y-125138720D01*
X165619373Y-125291605D01*
X165696615Y-125323600D01*
X165619373Y-125355595D01*
X165390565Y-125508480D01*
X165195980Y-125703065D01*
X165043095Y-125931873D01*
X164937786Y-126186110D01*
X164884100Y-126456008D01*
X164884100Y-126731192D01*
X164937786Y-127001090D01*
X165043095Y-127255327D01*
X165195980Y-127484135D01*
X165390565Y-127678720D01*
X165619373Y-127831605D01*
X165696615Y-127863600D01*
X165619373Y-127895595D01*
X165390565Y-128048480D01*
X165195980Y-128243065D01*
X165043095Y-128471873D01*
X164937786Y-128726110D01*
X164884100Y-128996008D01*
X164884100Y-129271192D01*
X164937786Y-129541090D01*
X165043095Y-129795327D01*
X165195980Y-130024135D01*
X165390565Y-130218720D01*
X165619373Y-130371605D01*
X165696615Y-130403600D01*
X165619373Y-130435595D01*
X165390565Y-130588480D01*
X165195980Y-130783065D01*
X165043095Y-131011873D01*
X164937786Y-131266110D01*
X164884100Y-131536008D01*
X164884100Y-131811192D01*
X164937786Y-132081090D01*
X165043095Y-132335327D01*
X165195980Y-132564135D01*
X165390565Y-132758720D01*
X165619373Y-132911605D01*
X165696615Y-132943600D01*
X165619373Y-132975595D01*
X165390565Y-133128480D01*
X165195980Y-133323065D01*
X165043095Y-133551873D01*
X164937786Y-133806110D01*
X164884100Y-134076008D01*
X164884100Y-134351192D01*
X164937786Y-134621090D01*
X165043095Y-134875327D01*
X165195980Y-135104135D01*
X165390565Y-135298720D01*
X165619373Y-135451605D01*
X165696615Y-135483600D01*
X165619373Y-135515595D01*
X165390565Y-135668480D01*
X165195980Y-135863065D01*
X165043095Y-136091873D01*
X164937786Y-136346110D01*
X164884100Y-136616008D01*
X164884100Y-136891192D01*
X164937786Y-137161090D01*
X165043095Y-137415327D01*
X165195980Y-137644135D01*
X165390565Y-137838720D01*
X165619373Y-137991605D01*
X165696615Y-138023600D01*
X165619373Y-138055595D01*
X165390565Y-138208480D01*
X165195980Y-138403065D01*
X165043095Y-138631873D01*
X164937786Y-138886110D01*
X164884100Y-139156008D01*
X164884100Y-139431192D01*
X164937786Y-139701090D01*
X165043095Y-139955327D01*
X165195980Y-140184135D01*
X165390565Y-140378720D01*
X165619373Y-140531605D01*
X165873610Y-140636914D01*
X166143508Y-140690600D01*
X166418692Y-140690600D01*
X166688590Y-140636914D01*
X166942827Y-140531605D01*
X167171635Y-140378720D01*
X167366220Y-140184135D01*
X167519105Y-139955327D01*
X167624414Y-139701090D01*
X167678100Y-139431192D01*
X167678100Y-139156008D01*
X167624414Y-138886110D01*
X167519105Y-138631873D01*
X167366220Y-138403065D01*
X167171635Y-138208480D01*
X166942827Y-138055595D01*
X166865585Y-138023600D01*
X166942827Y-137991605D01*
X167171635Y-137838720D01*
X167366220Y-137644135D01*
X167519105Y-137415327D01*
X167624414Y-137161090D01*
X167678100Y-136891192D01*
X167678100Y-136616008D01*
X167624414Y-136346110D01*
X167519105Y-136091873D01*
X167366220Y-135863065D01*
X167171635Y-135668480D01*
X166942827Y-135515595D01*
X166865585Y-135483600D01*
X166942827Y-135451605D01*
X167171635Y-135298720D01*
X167366220Y-135104135D01*
X167519105Y-134875327D01*
X167624414Y-134621090D01*
X167678100Y-134351192D01*
X167678100Y-134076008D01*
X167624414Y-133806110D01*
X167519105Y-133551873D01*
X167366220Y-133323065D01*
X167171635Y-133128480D01*
X166942827Y-132975595D01*
X166865585Y-132943600D01*
X166942827Y-132911605D01*
X167171635Y-132758720D01*
X167366220Y-132564135D01*
X167519105Y-132335327D01*
X167624414Y-132081090D01*
X167678100Y-131811192D01*
X167678100Y-131536008D01*
X167624414Y-131266110D01*
X167519105Y-131011873D01*
X167366220Y-130783065D01*
X167171635Y-130588480D01*
X166942827Y-130435595D01*
X166865585Y-130403600D01*
X166942827Y-130371605D01*
X167171635Y-130218720D01*
X167366220Y-130024135D01*
X167519105Y-129795327D01*
X167624414Y-129541090D01*
X167678100Y-129271192D01*
X167678100Y-128996008D01*
X167624414Y-128726110D01*
X167519105Y-128471873D01*
X167366220Y-128243065D01*
X167171635Y-128048480D01*
X166942827Y-127895595D01*
X166865585Y-127863600D01*
X166942827Y-127831605D01*
X167171635Y-127678720D01*
X167366220Y-127484135D01*
X167519105Y-127255327D01*
X167624414Y-127001090D01*
X167678100Y-126731192D01*
X167678100Y-126456008D01*
X167624414Y-126186110D01*
X167519105Y-125931873D01*
X167366220Y-125703065D01*
X167171635Y-125508480D01*
X166942827Y-125355595D01*
X166865585Y-125323600D01*
X166942827Y-125291605D01*
X167171635Y-125138720D01*
X167366220Y-124944135D01*
X167519105Y-124715327D01*
X167624414Y-124461090D01*
X167678100Y-124191192D01*
X167678100Y-123916008D01*
X167624414Y-123646110D01*
X167519105Y-123391873D01*
X167366220Y-123163065D01*
X167171635Y-122968480D01*
X167114046Y-122930000D01*
X170057815Y-122930000D01*
X170086487Y-123221111D01*
X170171401Y-123501034D01*
X170309294Y-123759014D01*
X170494866Y-123985134D01*
X170720986Y-124170706D01*
X170775791Y-124200000D01*
X170720986Y-124229294D01*
X170494866Y-124414866D01*
X170309294Y-124640986D01*
X170171401Y-124898966D01*
X170086487Y-125178889D01*
X170057815Y-125470000D01*
X170086487Y-125761111D01*
X170171401Y-126041034D01*
X170309294Y-126299014D01*
X170494866Y-126525134D01*
X170720986Y-126710706D01*
X170775791Y-126740000D01*
X170720986Y-126769294D01*
X170494866Y-126954866D01*
X170309294Y-127180986D01*
X170171401Y-127438966D01*
X170086487Y-127718889D01*
X170057815Y-128010000D01*
X170086487Y-128301111D01*
X170171401Y-128581034D01*
X170309294Y-128839014D01*
X170494866Y-129065134D01*
X170524687Y-129089607D01*
X170455820Y-129110498D01*
X170345506Y-129169463D01*
X170248815Y-129248815D01*
X170169463Y-129345506D01*
X170110498Y-129455820D01*
X170074188Y-129575518D01*
X170061928Y-129700000D01*
X170061928Y-131400000D01*
X170074188Y-131524482D01*
X170110498Y-131644180D01*
X170169463Y-131754494D01*
X170248815Y-131851185D01*
X170345506Y-131930537D01*
X170455820Y-131989502D01*
X170575518Y-132025812D01*
X170700000Y-132038072D01*
X172400000Y-132038072D01*
X172524482Y-132025812D01*
X172644180Y-131989502D01*
X172754494Y-131930537D01*
X172851185Y-131851185D01*
X172930537Y-131754494D01*
X172989502Y-131644180D01*
X173025812Y-131524482D01*
X173038072Y-131400000D01*
X173038072Y-129700000D01*
X173025812Y-129575518D01*
X172989502Y-129455820D01*
X172930537Y-129345506D01*
X172851185Y-129248815D01*
X172754494Y-129169463D01*
X172644180Y-129110498D01*
X172575313Y-129089607D01*
X172605134Y-129065134D01*
X172790706Y-128839014D01*
X172928599Y-128581034D01*
X173013513Y-128301111D01*
X173042185Y-128010000D01*
X173013513Y-127718889D01*
X172928599Y-127438966D01*
X172790706Y-127180986D01*
X172605134Y-126954866D01*
X172379014Y-126769294D01*
X172324209Y-126740000D01*
X172379014Y-126710706D01*
X172605134Y-126525134D01*
X172790706Y-126299014D01*
X172928599Y-126041034D01*
X173013513Y-125761111D01*
X173042185Y-125470000D01*
X173013513Y-125178889D01*
X172928599Y-124898966D01*
X172790706Y-124640986D01*
X172605134Y-124414866D01*
X172379014Y-124229294D01*
X172324209Y-124200000D01*
X172379014Y-124170706D01*
X172605134Y-123985134D01*
X172790706Y-123759014D01*
X172928599Y-123501034D01*
X173013513Y-123221111D01*
X173042185Y-122930000D01*
X173013513Y-122638889D01*
X172928599Y-122358966D01*
X172790706Y-122100986D01*
X172605134Y-121874866D01*
X172379014Y-121689294D01*
X172121034Y-121551401D01*
X171841111Y-121466487D01*
X171622950Y-121445000D01*
X171477050Y-121445000D01*
X171258889Y-121466487D01*
X170978966Y-121551401D01*
X170720986Y-121689294D01*
X170494866Y-121874866D01*
X170309294Y-122100986D01*
X170171401Y-122358966D01*
X170086487Y-122638889D01*
X170057815Y-122930000D01*
X167114046Y-122930000D01*
X166942827Y-122815595D01*
X166865585Y-122783600D01*
X166942827Y-122751605D01*
X167171635Y-122598720D01*
X167366220Y-122404135D01*
X167519105Y-122175327D01*
X167624414Y-121921090D01*
X167678100Y-121651192D01*
X167678100Y-121376008D01*
X167624414Y-121106110D01*
X167519105Y-120851873D01*
X167366220Y-120623065D01*
X167171635Y-120428480D01*
X166942827Y-120275595D01*
X166865585Y-120243600D01*
X166942827Y-120211605D01*
X167171635Y-120058720D01*
X167366220Y-119864135D01*
X167519105Y-119635327D01*
X167624414Y-119381090D01*
X167678100Y-119111192D01*
X167678100Y-118836008D01*
X167624414Y-118566110D01*
X167519105Y-118311873D01*
X167366220Y-118083065D01*
X167171635Y-117888480D01*
X166942827Y-117735595D01*
X166865585Y-117703600D01*
X166942827Y-117671605D01*
X167171635Y-117518720D01*
X167366220Y-117324135D01*
X167519105Y-117095327D01*
X167624414Y-116841090D01*
X167678100Y-116571192D01*
X167678100Y-116296008D01*
X167624414Y-116026110D01*
X167519105Y-115771873D01*
X167366220Y-115543065D01*
X167171635Y-115348480D01*
X166942827Y-115195595D01*
X166871157Y-115165908D01*
X166884123Y-115161236D01*
X167000080Y-115099256D01*
X167067060Y-114859165D01*
X166281100Y-114073205D01*
X165495140Y-114859165D01*
X165562120Y-115099256D01*
X165697860Y-115163085D01*
X165619373Y-115195595D01*
X165390565Y-115348480D01*
X165195980Y-115543065D01*
X165043095Y-115771873D01*
X164937786Y-116026110D01*
X164884100Y-116296008D01*
X152438100Y-116296008D01*
X152384414Y-116026110D01*
X152279105Y-115771873D01*
X152126220Y-115543065D01*
X151931635Y-115348480D01*
X151702827Y-115195595D01*
X151625585Y-115163600D01*
X151702827Y-115131605D01*
X151931635Y-114978720D01*
X152126220Y-114784135D01*
X152279105Y-114555327D01*
X152384414Y-114301090D01*
X152438100Y-114031192D01*
X152438100Y-113965617D01*
X164879190Y-113965617D01*
X164920178Y-114237733D01*
X165013464Y-114496623D01*
X165075444Y-114612580D01*
X165315535Y-114679560D01*
X166101495Y-113893600D01*
X166460705Y-113893600D01*
X167246665Y-114679560D01*
X167486756Y-114612580D01*
X167603856Y-114363552D01*
X167670123Y-114096465D01*
X167674176Y-114010000D01*
X170057815Y-114010000D01*
X170086487Y-114301111D01*
X170171401Y-114581034D01*
X170309294Y-114839014D01*
X170494866Y-115065134D01*
X170524687Y-115089607D01*
X170455820Y-115110498D01*
X170345506Y-115169463D01*
X170248815Y-115248815D01*
X170169463Y-115345506D01*
X170110498Y-115455820D01*
X170074188Y-115575518D01*
X170061928Y-115700000D01*
X170061928Y-117400000D01*
X170074188Y-117524482D01*
X170110498Y-117644180D01*
X170169463Y-117754494D01*
X170248815Y-117851185D01*
X170345506Y-117930537D01*
X170455820Y-117989502D01*
X170575518Y-118025812D01*
X170700000Y-118038072D01*
X172400000Y-118038072D01*
X172524482Y-118025812D01*
X172644180Y-117989502D01*
X172754494Y-117930537D01*
X172851185Y-117851185D01*
X172930537Y-117754494D01*
X172989502Y-117644180D01*
X173025812Y-117524482D01*
X173038072Y-117400000D01*
X173038072Y-115700000D01*
X173025812Y-115575518D01*
X172989502Y-115455820D01*
X172930537Y-115345506D01*
X172851185Y-115248815D01*
X172754494Y-115169463D01*
X172644180Y-115110498D01*
X172575313Y-115089607D01*
X172605134Y-115065134D01*
X172790706Y-114839014D01*
X172928599Y-114581034D01*
X173013513Y-114301111D01*
X173042185Y-114010000D01*
X173013513Y-113718889D01*
X172928599Y-113438966D01*
X172790706Y-113180986D01*
X172605134Y-112954866D01*
X172379014Y-112769294D01*
X172314477Y-112734799D01*
X172431355Y-112665178D01*
X172647588Y-112470269D01*
X172821641Y-112236920D01*
X172946825Y-111974099D01*
X172991476Y-111826890D01*
X172870155Y-111597000D01*
X171677000Y-111597000D01*
X171677000Y-111617000D01*
X171423000Y-111617000D01*
X171423000Y-111597000D01*
X170229845Y-111597000D01*
X170108524Y-111826890D01*
X170153175Y-111974099D01*
X170278359Y-112236920D01*
X170452412Y-112470269D01*
X170668645Y-112665178D01*
X170785523Y-112734799D01*
X170720986Y-112769294D01*
X170494866Y-112954866D01*
X170309294Y-113180986D01*
X170171401Y-113438966D01*
X170086487Y-113718889D01*
X170057815Y-114010000D01*
X167674176Y-114010000D01*
X167683010Y-113821583D01*
X167642022Y-113549467D01*
X167548736Y-113290577D01*
X167486756Y-113174620D01*
X167246665Y-113107640D01*
X166460705Y-113893600D01*
X166101495Y-113893600D01*
X165315535Y-113107640D01*
X165075444Y-113174620D01*
X164958344Y-113423648D01*
X164892077Y-113690735D01*
X164879190Y-113965617D01*
X152438100Y-113965617D01*
X152438100Y-113756008D01*
X152384414Y-113486110D01*
X152279105Y-113231873D01*
X152126220Y-113003065D01*
X151931635Y-112808480D01*
X151702827Y-112655595D01*
X151625585Y-112623600D01*
X151702827Y-112591605D01*
X151931635Y-112438720D01*
X152126220Y-112244135D01*
X152279105Y-112015327D01*
X152384414Y-111761090D01*
X152438100Y-111491192D01*
X152438100Y-111216008D01*
X164884100Y-111216008D01*
X164884100Y-111491192D01*
X164937786Y-111761090D01*
X165043095Y-112015327D01*
X165195980Y-112244135D01*
X165390565Y-112438720D01*
X165619373Y-112591605D01*
X165691043Y-112621292D01*
X165678077Y-112625964D01*
X165562120Y-112687944D01*
X165495140Y-112928035D01*
X166281100Y-113713995D01*
X167067060Y-112928035D01*
X167000080Y-112687944D01*
X166864340Y-112624115D01*
X166942827Y-112591605D01*
X167171635Y-112438720D01*
X167366220Y-112244135D01*
X167519105Y-112015327D01*
X167624414Y-111761090D01*
X167678100Y-111491192D01*
X167678100Y-111216008D01*
X167624414Y-110946110D01*
X167519105Y-110691873D01*
X167366220Y-110463065D01*
X167171635Y-110268480D01*
X166942827Y-110115595D01*
X166688590Y-110010286D01*
X166418692Y-109956600D01*
X166143508Y-109956600D01*
X165873610Y-110010286D01*
X165619373Y-110115595D01*
X165390565Y-110268480D01*
X165195980Y-110463065D01*
X165043095Y-110691873D01*
X164937786Y-110946110D01*
X164884100Y-111216008D01*
X152438100Y-111216008D01*
X152384414Y-110946110D01*
X152279105Y-110691873D01*
X152126220Y-110463065D01*
X151931635Y-110268480D01*
X151702827Y-110115595D01*
X151448590Y-110010286D01*
X151178692Y-109956600D01*
X150903508Y-109956600D01*
X150633610Y-110010286D01*
X150379373Y-110115595D01*
X150150565Y-110268480D01*
X149955980Y-110463065D01*
X149803095Y-110691873D01*
X149697786Y-110946110D01*
X149644100Y-111216008D01*
X145313072Y-111216008D01*
X145313072Y-110700000D01*
X145300812Y-110575518D01*
X145264502Y-110455820D01*
X145205537Y-110345506D01*
X145126185Y-110248815D01*
X145029494Y-110169463D01*
X144919180Y-110110498D01*
X144850313Y-110089607D01*
X144880134Y-110065134D01*
X145065706Y-109839014D01*
X145203599Y-109581034D01*
X145288513Y-109301111D01*
X145289913Y-109286890D01*
X170108524Y-109286890D01*
X170153175Y-109434099D01*
X170278359Y-109696920D01*
X170452412Y-109930269D01*
X170668645Y-110125178D01*
X170794255Y-110200000D01*
X170668645Y-110274822D01*
X170452412Y-110469731D01*
X170278359Y-110703080D01*
X170153175Y-110965901D01*
X170108524Y-111113110D01*
X170229845Y-111343000D01*
X171423000Y-111343000D01*
X171423000Y-109057000D01*
X171677000Y-109057000D01*
X171677000Y-111343000D01*
X172870155Y-111343000D01*
X172991476Y-111113110D01*
X172946825Y-110965901D01*
X172821641Y-110703080D01*
X172647588Y-110469731D01*
X172431355Y-110274822D01*
X172305745Y-110200000D01*
X172431355Y-110125178D01*
X172647588Y-109930269D01*
X172821641Y-109696920D01*
X172946825Y-109434099D01*
X172991476Y-109286890D01*
X172870155Y-109057000D01*
X171677000Y-109057000D01*
X171423000Y-109057000D01*
X170229845Y-109057000D01*
X170108524Y-109286890D01*
X145289913Y-109286890D01*
X145317185Y-109010000D01*
X145288513Y-108718889D01*
X145244292Y-108573110D01*
X170108524Y-108573110D01*
X170229845Y-108803000D01*
X171423000Y-108803000D01*
X171423000Y-107609186D01*
X171677000Y-107609186D01*
X171677000Y-108803000D01*
X172870155Y-108803000D01*
X172991476Y-108573110D01*
X172946825Y-108425901D01*
X172821641Y-108163080D01*
X172647588Y-107929731D01*
X172431355Y-107734822D01*
X172181252Y-107585843D01*
X171906891Y-107488519D01*
X171677000Y-107609186D01*
X171423000Y-107609186D01*
X171193109Y-107488519D01*
X170918748Y-107585843D01*
X170668645Y-107734822D01*
X170452412Y-107929731D01*
X170278359Y-108163080D01*
X170153175Y-108425901D01*
X170108524Y-108573110D01*
X145244292Y-108573110D01*
X145203599Y-108438966D01*
X145065706Y-108180986D01*
X144880134Y-107954866D01*
X144654014Y-107769294D01*
X144599209Y-107740000D01*
X144654014Y-107710706D01*
X144880134Y-107525134D01*
X145065706Y-107299014D01*
X145203599Y-107041034D01*
X145288513Y-106761111D01*
X145317185Y-106470000D01*
X145288513Y-106178889D01*
X145203599Y-105898966D01*
X145065706Y-105640986D01*
X144880134Y-105414866D01*
X144654014Y-105229294D01*
X144396034Y-105091401D01*
X144116111Y-105006487D01*
X143897950Y-104985000D01*
X143752050Y-104985000D01*
X143533889Y-105006487D01*
X143253966Y-105091401D01*
X142995986Y-105229294D01*
X142769866Y-105414866D01*
X142584294Y-105640986D01*
X142446401Y-105898966D01*
X142361487Y-106178889D01*
X142332815Y-106470000D01*
X141660000Y-106470000D01*
X141660000Y-104675000D01*
X168592815Y-104675000D01*
X168621487Y-104966111D01*
X168706401Y-105246034D01*
X168844294Y-105504014D01*
X169029866Y-105730134D01*
X169255986Y-105915706D01*
X169513966Y-106053599D01*
X169793889Y-106138513D01*
X170012050Y-106160000D01*
X170157950Y-106160000D01*
X170376111Y-106138513D01*
X170656034Y-106053599D01*
X170914014Y-105915706D01*
X171140134Y-105730134D01*
X171164607Y-105700313D01*
X171185498Y-105769180D01*
X171244463Y-105879494D01*
X171323815Y-105976185D01*
X171420506Y-106055537D01*
X171530820Y-106114502D01*
X171650518Y-106150812D01*
X171775000Y-106163072D01*
X172339250Y-106160000D01*
X172498000Y-106001250D01*
X172498000Y-104802000D01*
X172752000Y-104802000D01*
X172752000Y-106001250D01*
X172910750Y-106160000D01*
X173475000Y-106163072D01*
X173599482Y-106150812D01*
X173719180Y-106114502D01*
X173829494Y-106055537D01*
X173926185Y-105976185D01*
X174005537Y-105879494D01*
X174064502Y-105769180D01*
X174100812Y-105649482D01*
X174113072Y-105525000D01*
X174110000Y-104960750D01*
X173951250Y-104802000D01*
X172752000Y-104802000D01*
X172498000Y-104802000D01*
X172478000Y-104802000D01*
X172478000Y-104548000D01*
X172498000Y-104548000D01*
X172498000Y-103348750D01*
X172752000Y-103348750D01*
X172752000Y-104548000D01*
X173951250Y-104548000D01*
X174110000Y-104389250D01*
X174113072Y-103825000D01*
X174100812Y-103700518D01*
X174064502Y-103580820D01*
X174005537Y-103470506D01*
X173926185Y-103373815D01*
X173829494Y-103294463D01*
X173719180Y-103235498D01*
X173599482Y-103199188D01*
X173475000Y-103186928D01*
X172910750Y-103190000D01*
X172752000Y-103348750D01*
X172498000Y-103348750D01*
X172339250Y-103190000D01*
X171775000Y-103186928D01*
X171650518Y-103199188D01*
X171530820Y-103235498D01*
X171420506Y-103294463D01*
X171323815Y-103373815D01*
X171244463Y-103470506D01*
X171185498Y-103580820D01*
X171164607Y-103649687D01*
X171140134Y-103619866D01*
X170914014Y-103434294D01*
X170656034Y-103296401D01*
X170376111Y-103211487D01*
X170157950Y-103190000D01*
X170012050Y-103190000D01*
X169793889Y-103211487D01*
X169513966Y-103296401D01*
X169255986Y-103434294D01*
X169029866Y-103619866D01*
X168844294Y-103845986D01*
X168706401Y-104103966D01*
X168621487Y-104383889D01*
X168592815Y-104675000D01*
X141660000Y-104675000D01*
X141660000Y-100685000D01*
X174290000Y-100685000D01*
X174290001Y-161815000D01*
M02*
