G04 #@! TF.GenerationSoftware,KiCad,Pcbnew,(5.1.2-1)-1*
G04 #@! TF.CreationDate,2020-05-14T07:39:01+12:00*
G04 #@! TF.ProjectId,RatTrapSensorPCB,52617454-7261-4705-9365-6e736f725043,1.0*
G04 #@! TF.SameCoordinates,Original*
G04 #@! TF.FileFunction,Soldermask,Top*
G04 #@! TF.FilePolarity,Negative*
%FSLAX46Y46*%
G04 Gerber Fmt 4.6, Leading zero omitted, Abs format (unit mm)*
G04 Created by KiCad (PCBNEW (5.1.2-1)-1) date 2020-05-14 07:39:01*
%MOMM*%
%LPD*%
G04 APERTURE LIST*
%ADD10R,1.700000X1.900000*%
%ADD11R,2.100000X2.100000*%
%ADD12O,2.100000X2.100000*%
%ADD13R,1.924000X1.400000*%
%ADD14R,1.924000X1.200000*%
%ADD15R,2.600000X1.400000*%
%ADD16R,1.450000X1.400000*%
%ADD17C,1.924000*%
G04 APERTURE END LIST*
D10*
X143000000Y-142650000D03*
X143000000Y-145350000D03*
D11*
X143825000Y-111550000D03*
D12*
X143825000Y-109010000D03*
X143825000Y-106470000D03*
D11*
X143825000Y-136550000D03*
D12*
X143825000Y-134010000D03*
X143825000Y-131470000D03*
X143825000Y-128930000D03*
X143825000Y-126390000D03*
D11*
X171550000Y-130550000D03*
D12*
X171550000Y-128010000D03*
X171550000Y-125470000D03*
X171550000Y-122930000D03*
D11*
X171550000Y-116550000D03*
D12*
X171550000Y-114010000D03*
X171550000Y-111470000D03*
X171550000Y-108930000D03*
D11*
X172625000Y-104675000D03*
D12*
X170085000Y-104675000D03*
D10*
X143000000Y-148650000D03*
X143000000Y-151350000D03*
D11*
X143825000Y-117550000D03*
D12*
X143825000Y-120090000D03*
D13*
X148800000Y-158100000D03*
D14*
X167000000Y-145230000D03*
X167000000Y-146500000D03*
X167000000Y-147770000D03*
X167000000Y-149040000D03*
X167000000Y-150310000D03*
X167000000Y-151580000D03*
X167000000Y-152850000D03*
X167000000Y-154120000D03*
X167000000Y-155390000D03*
X167000000Y-156660000D03*
X167000000Y-157930000D03*
X167000000Y-159200000D03*
D13*
X148800000Y-159600000D03*
D15*
X143950000Y-157875000D03*
X143950000Y-154775000D03*
D16*
X145550000Y-156275000D03*
D17*
X151041100Y-111353600D03*
X151041100Y-113893600D03*
X151041100Y-116433600D03*
X151041100Y-118973600D03*
X151041100Y-121513600D03*
X151041100Y-124053600D03*
X151041100Y-126593600D03*
X151041100Y-129133600D03*
X151041100Y-131673600D03*
X151041100Y-134213600D03*
X151041100Y-136753600D03*
X151041100Y-139293600D03*
X166281100Y-111353600D03*
X166281100Y-113893600D03*
X166281100Y-116433600D03*
X166281100Y-118973600D03*
X166281100Y-121513600D03*
X166281100Y-124053600D03*
X166281100Y-126593600D03*
X166281100Y-129133600D03*
X166281100Y-131673600D03*
X166281100Y-134213600D03*
X166281100Y-136753600D03*
X166281100Y-139293600D03*
D11*
X142775000Y-160650000D03*
D12*
X145315000Y-160650000D03*
M02*
