G04 #@! TF.GenerationSoftware,KiCad,Pcbnew,(5.1.9-0-10_14)*
G04 #@! TF.CreationDate,2021-08-23T20:50:58+12:00*
G04 #@! TF.ProjectId,RatTrapSensorPCB,52617454-7261-4705-9365-6e736f725043,1.0*
G04 #@! TF.SameCoordinates,Original*
G04 #@! TF.FileFunction,Legend,Top*
G04 #@! TF.FilePolarity,Positive*
%FSLAX46Y46*%
G04 Gerber Fmt 4.6, Leading zero omitted, Abs format (unit mm)*
G04 Created by KiCad (PCBNEW (5.1.9-0-10_14)) date 2021-08-23 20:50:58*
%MOMM*%
%LPD*%
G01*
G04 APERTURE LIST*
%ADD10C,0.300000*%
%ADD11C,0.250000*%
%ADD12C,0.120000*%
%ADD13C,0.150000*%
G04 APERTURE END LIST*
D10*
X147278571Y-161382142D02*
X148421428Y-161382142D01*
X147850000Y-161953571D02*
X147850000Y-160810714D01*
X147000000Y-152660714D02*
X147000000Y-153375000D01*
X146571428Y-152517857D02*
X148071428Y-153017857D01*
X146571428Y-153517857D01*
X147571428Y-154017857D02*
X146571428Y-154017857D01*
X147428571Y-154017857D02*
X147500000Y-154089285D01*
X147571428Y-154232142D01*
X147571428Y-154446428D01*
X147500000Y-154589285D01*
X147357142Y-154660714D01*
X146571428Y-154660714D01*
X147571428Y-155160714D02*
X147571428Y-155732142D01*
X148071428Y-155375000D02*
X146785714Y-155375000D01*
X146642857Y-155446428D01*
X146571428Y-155589285D01*
X146571428Y-155732142D01*
D11*
X146086904Y-137002380D02*
X146086904Y-136002380D01*
X146325000Y-136002380D01*
X146467857Y-136050000D01*
X146563095Y-136145238D01*
X146610714Y-136240476D01*
X146658333Y-136430952D01*
X146658333Y-136573809D01*
X146610714Y-136764285D01*
X146563095Y-136859523D01*
X146467857Y-136954761D01*
X146325000Y-137002380D01*
X146086904Y-137002380D01*
X147229761Y-136430952D02*
X147134523Y-136383333D01*
X147086904Y-136335714D01*
X147039285Y-136240476D01*
X147039285Y-136192857D01*
X147086904Y-136097619D01*
X147134523Y-136050000D01*
X147229761Y-136002380D01*
X147420238Y-136002380D01*
X147515476Y-136050000D01*
X147563095Y-136097619D01*
X147610714Y-136192857D01*
X147610714Y-136240476D01*
X147563095Y-136335714D01*
X147515476Y-136383333D01*
X147420238Y-136430952D01*
X147229761Y-136430952D01*
X147134523Y-136478571D01*
X147086904Y-136526190D01*
X147039285Y-136621428D01*
X147039285Y-136811904D01*
X147086904Y-136907142D01*
X147134523Y-136954761D01*
X147229761Y-137002380D01*
X147420238Y-137002380D01*
X147515476Y-136954761D01*
X147563095Y-136907142D01*
X147610714Y-136811904D01*
X147610714Y-136621428D01*
X147563095Y-136526190D01*
X147515476Y-136478571D01*
X147420238Y-136430952D01*
X146211904Y-134352380D02*
X146211904Y-133352380D01*
X146450000Y-133352380D01*
X146592857Y-133400000D01*
X146688095Y-133495238D01*
X146735714Y-133590476D01*
X146783333Y-133780952D01*
X146783333Y-133923809D01*
X146735714Y-134114285D01*
X146688095Y-134209523D01*
X146592857Y-134304761D01*
X146450000Y-134352380D01*
X146211904Y-134352380D01*
X147116666Y-133352380D02*
X147783333Y-133352380D01*
X147354761Y-134352380D01*
X146086904Y-132002380D02*
X146086904Y-131002380D01*
X146325000Y-131002380D01*
X146467857Y-131050000D01*
X146563095Y-131145238D01*
X146610714Y-131240476D01*
X146658333Y-131430952D01*
X146658333Y-131573809D01*
X146610714Y-131764285D01*
X146563095Y-131859523D01*
X146467857Y-131954761D01*
X146325000Y-132002380D01*
X146086904Y-132002380D01*
X147515476Y-131002380D02*
X147325000Y-131002380D01*
X147229761Y-131050000D01*
X147182142Y-131097619D01*
X147086904Y-131240476D01*
X147039285Y-131430952D01*
X147039285Y-131811904D01*
X147086904Y-131907142D01*
X147134523Y-131954761D01*
X147229761Y-132002380D01*
X147420238Y-132002380D01*
X147515476Y-131954761D01*
X147563095Y-131907142D01*
X147610714Y-131811904D01*
X147610714Y-131573809D01*
X147563095Y-131478571D01*
X147515476Y-131430952D01*
X147420238Y-131383333D01*
X147229761Y-131383333D01*
X147134523Y-131430952D01*
X147086904Y-131478571D01*
X147039285Y-131573809D01*
X146086904Y-129502380D02*
X146086904Y-128502380D01*
X146325000Y-128502380D01*
X146467857Y-128550000D01*
X146563095Y-128645238D01*
X146610714Y-128740476D01*
X146658333Y-128930952D01*
X146658333Y-129073809D01*
X146610714Y-129264285D01*
X146563095Y-129359523D01*
X146467857Y-129454761D01*
X146325000Y-129502380D01*
X146086904Y-129502380D01*
X147563095Y-128502380D02*
X147086904Y-128502380D01*
X147039285Y-128978571D01*
X147086904Y-128930952D01*
X147182142Y-128883333D01*
X147420238Y-128883333D01*
X147515476Y-128930952D01*
X147563095Y-128978571D01*
X147610714Y-129073809D01*
X147610714Y-129311904D01*
X147563095Y-129407142D01*
X147515476Y-129454761D01*
X147420238Y-129502380D01*
X147182142Y-129502380D01*
X147086904Y-129454761D01*
X147039285Y-129407142D01*
X146086904Y-127002380D02*
X146086904Y-126002380D01*
X146325000Y-126002380D01*
X146467857Y-126050000D01*
X146563095Y-126145238D01*
X146610714Y-126240476D01*
X146658333Y-126430952D01*
X146658333Y-126573809D01*
X146610714Y-126764285D01*
X146563095Y-126859523D01*
X146467857Y-126954761D01*
X146325000Y-127002380D01*
X146086904Y-127002380D01*
X147515476Y-126335714D02*
X147515476Y-127002380D01*
X147277380Y-125954761D02*
X147039285Y-126669047D01*
X147658333Y-126669047D01*
X146552380Y-123109523D02*
X147552380Y-122776190D01*
X146552380Y-122442857D01*
X147552380Y-122109523D02*
X146885714Y-122109523D01*
X146552380Y-122109523D02*
X146600000Y-122157142D01*
X146647619Y-122109523D01*
X146600000Y-122061904D01*
X146552380Y-122109523D01*
X146647619Y-122109523D01*
X147552380Y-121633333D02*
X146552380Y-121633333D01*
X146933333Y-121633333D02*
X146885714Y-121538095D01*
X146885714Y-121347619D01*
X146933333Y-121252380D01*
X146980952Y-121204761D01*
X147076190Y-121157142D01*
X147361904Y-121157142D01*
X147457142Y-121204761D01*
X147504761Y-121252380D01*
X147552380Y-121347619D01*
X147552380Y-121538095D01*
X147504761Y-121633333D01*
X147504761Y-120014285D02*
X147552380Y-119871428D01*
X147552380Y-119633333D01*
X147504761Y-119538095D01*
X147457142Y-119490476D01*
X147361904Y-119442857D01*
X147266666Y-119442857D01*
X147171428Y-119490476D01*
X147123809Y-119538095D01*
X147076190Y-119633333D01*
X147028571Y-119823809D01*
X146980952Y-119919047D01*
X146933333Y-119966666D01*
X146838095Y-120014285D01*
X146742857Y-120014285D01*
X146647619Y-119966666D01*
X146600000Y-119919047D01*
X146552380Y-119823809D01*
X146552380Y-119585714D01*
X146600000Y-119442857D01*
X146885714Y-119109523D02*
X147552380Y-118919047D01*
X147076190Y-118728571D01*
X147552380Y-118538095D01*
X146885714Y-118347619D01*
X147552380Y-117966666D02*
X146885714Y-117966666D01*
X146552380Y-117966666D02*
X146600000Y-118014285D01*
X146647619Y-117966666D01*
X146600000Y-117919047D01*
X146552380Y-117966666D01*
X146647619Y-117966666D01*
X146885714Y-117633333D02*
X146885714Y-117252380D01*
X146552380Y-117490476D02*
X147409523Y-117490476D01*
X147504761Y-117442857D01*
X147552380Y-117347619D01*
X147552380Y-117252380D01*
X147504761Y-116490476D02*
X147552380Y-116585714D01*
X147552380Y-116776190D01*
X147504761Y-116871428D01*
X147457142Y-116919047D01*
X147361904Y-116966666D01*
X147076190Y-116966666D01*
X146980952Y-116919047D01*
X146933333Y-116871428D01*
X146885714Y-116776190D01*
X146885714Y-116585714D01*
X146933333Y-116490476D01*
X147552380Y-116061904D02*
X146552380Y-116061904D01*
X147552380Y-115633333D02*
X147028571Y-115633333D01*
X146933333Y-115680952D01*
X146885714Y-115776190D01*
X146885714Y-115919047D01*
X146933333Y-116014285D01*
X146980952Y-116061904D01*
X146652380Y-112327380D02*
X146319047Y-111851190D01*
X146080952Y-112327380D02*
X146080952Y-111327380D01*
X146461904Y-111327380D01*
X146557142Y-111375000D01*
X146604761Y-111422619D01*
X146652380Y-111517857D01*
X146652380Y-111660714D01*
X146604761Y-111755952D01*
X146557142Y-111803571D01*
X146461904Y-111851190D01*
X146080952Y-111851190D01*
X147033333Y-112279761D02*
X147176190Y-112327380D01*
X147414285Y-112327380D01*
X147509523Y-112279761D01*
X147557142Y-112232142D01*
X147604761Y-112136904D01*
X147604761Y-112041666D01*
X147557142Y-111946428D01*
X147509523Y-111898809D01*
X147414285Y-111851190D01*
X147223809Y-111803571D01*
X147128571Y-111755952D01*
X147080952Y-111708333D01*
X147033333Y-111613095D01*
X147033333Y-111517857D01*
X147080952Y-111422619D01*
X147128571Y-111375000D01*
X147223809Y-111327380D01*
X147461904Y-111327380D01*
X147604761Y-111375000D01*
X147890476Y-111327380D02*
X148461904Y-111327380D01*
X148176190Y-112327380D02*
X148176190Y-111327380D01*
X146086904Y-109502380D02*
X146086904Y-108502380D01*
X146325000Y-108502380D01*
X146467857Y-108550000D01*
X146563095Y-108645238D01*
X146610714Y-108740476D01*
X146658333Y-108930952D01*
X146658333Y-109073809D01*
X146610714Y-109264285D01*
X146563095Y-109359523D01*
X146467857Y-109454761D01*
X146325000Y-109502380D01*
X146086904Y-109502380D01*
X147610714Y-109502380D02*
X147039285Y-109502380D01*
X147325000Y-109502380D02*
X147325000Y-108502380D01*
X147229761Y-108645238D01*
X147134523Y-108740476D01*
X147039285Y-108788095D01*
X146086904Y-107002380D02*
X146086904Y-106002380D01*
X146325000Y-106002380D01*
X146467857Y-106050000D01*
X146563095Y-106145238D01*
X146610714Y-106240476D01*
X146658333Y-106430952D01*
X146658333Y-106573809D01*
X146610714Y-106764285D01*
X146563095Y-106859523D01*
X146467857Y-106954761D01*
X146325000Y-107002380D01*
X146086904Y-107002380D01*
X147277380Y-106002380D02*
X147372619Y-106002380D01*
X147467857Y-106050000D01*
X147515476Y-106097619D01*
X147563095Y-106192857D01*
X147610714Y-106383333D01*
X147610714Y-106621428D01*
X147563095Y-106811904D01*
X147515476Y-106907142D01*
X147467857Y-106954761D01*
X147372619Y-107002380D01*
X147277380Y-107002380D01*
X147182142Y-106954761D01*
X147134523Y-106907142D01*
X147086904Y-106811904D01*
X147039285Y-106621428D01*
X147039285Y-106383333D01*
X147086904Y-106192857D01*
X147134523Y-106097619D01*
X147182142Y-106050000D01*
X147277380Y-106002380D01*
X168435714Y-131116666D02*
X168911904Y-131116666D01*
X168340476Y-131402380D02*
X168673809Y-130402380D01*
X169007142Y-131402380D01*
X169530952Y-130402380D02*
X169626190Y-130402380D01*
X169721428Y-130450000D01*
X169769047Y-130497619D01*
X169816666Y-130592857D01*
X169864285Y-130783333D01*
X169864285Y-131021428D01*
X169816666Y-131211904D01*
X169769047Y-131307142D01*
X169721428Y-131354761D01*
X169626190Y-131402380D01*
X169530952Y-131402380D01*
X169435714Y-131354761D01*
X169388095Y-131307142D01*
X169340476Y-131211904D01*
X169292857Y-131021428D01*
X169292857Y-130783333D01*
X169340476Y-130592857D01*
X169388095Y-130497619D01*
X169435714Y-130450000D01*
X169530952Y-130402380D01*
X168185714Y-128366666D02*
X168661904Y-128366666D01*
X168090476Y-128652380D02*
X168423809Y-127652380D01*
X168757142Y-128652380D01*
X169614285Y-128652380D02*
X169042857Y-128652380D01*
X169328571Y-128652380D02*
X169328571Y-127652380D01*
X169233333Y-127795238D01*
X169138095Y-127890476D01*
X169042857Y-127938095D01*
X168335714Y-125816666D02*
X168811904Y-125816666D01*
X168240476Y-126102380D02*
X168573809Y-125102380D01*
X168907142Y-126102380D01*
X169192857Y-125197619D02*
X169240476Y-125150000D01*
X169335714Y-125102380D01*
X169573809Y-125102380D01*
X169669047Y-125150000D01*
X169716666Y-125197619D01*
X169764285Y-125292857D01*
X169764285Y-125388095D01*
X169716666Y-125530952D01*
X169145238Y-126102380D01*
X169764285Y-126102380D01*
X168135714Y-123141666D02*
X168611904Y-123141666D01*
X168040476Y-123427380D02*
X168373809Y-122427380D01*
X168707142Y-123427380D01*
X168945238Y-122427380D02*
X169564285Y-122427380D01*
X169230952Y-122808333D01*
X169373809Y-122808333D01*
X169469047Y-122855952D01*
X169516666Y-122903571D01*
X169564285Y-122998809D01*
X169564285Y-123236904D01*
X169516666Y-123332142D01*
X169469047Y-123379761D01*
X169373809Y-123427380D01*
X169088095Y-123427380D01*
X168992857Y-123379761D01*
X168945238Y-123332142D01*
D10*
X168942857Y-108300000D02*
X168800000Y-108228571D01*
X168585714Y-108228571D01*
X168371428Y-108300000D01*
X168228571Y-108442857D01*
X168157142Y-108585714D01*
X168085714Y-108871428D01*
X168085714Y-109085714D01*
X168157142Y-109371428D01*
X168228571Y-109514285D01*
X168371428Y-109657142D01*
X168585714Y-109728571D01*
X168728571Y-109728571D01*
X168942857Y-109657142D01*
X169014285Y-109585714D01*
X169014285Y-109085714D01*
X168728571Y-109085714D01*
X168942857Y-111300000D02*
X168800000Y-111228571D01*
X168585714Y-111228571D01*
X168371428Y-111300000D01*
X168228571Y-111442857D01*
X168157142Y-111585714D01*
X168085714Y-111871428D01*
X168085714Y-112085714D01*
X168157142Y-112371428D01*
X168228571Y-112514285D01*
X168371428Y-112657142D01*
X168585714Y-112728571D01*
X168728571Y-112728571D01*
X168942857Y-112657142D01*
X169014285Y-112585714D01*
X169014285Y-112085714D01*
X168728571Y-112085714D01*
X168178571Y-117007142D02*
X169321428Y-117007142D01*
X168750000Y-117578571D02*
X168750000Y-116435714D01*
X168328571Y-114782142D02*
X169471428Y-114782142D01*
X168900000Y-115353571D02*
X168900000Y-114210714D01*
X167228571Y-104707142D02*
X168371428Y-104707142D01*
X167800000Y-105278571D02*
X167800000Y-104135714D01*
D11*
X171490714Y-158139523D02*
X172157380Y-157901428D01*
X171490714Y-157663333D01*
X172157380Y-156758571D02*
X172157380Y-157330000D01*
X172157380Y-157044285D02*
X171157380Y-157044285D01*
X171300238Y-157139523D01*
X171395476Y-157234761D01*
X171443095Y-157330000D01*
X172062142Y-156330000D02*
X172109761Y-156282380D01*
X172157380Y-156330000D01*
X172109761Y-156377619D01*
X172062142Y-156330000D01*
X172157380Y-156330000D01*
X171157380Y-155949047D02*
X171157380Y-155330000D01*
X171538333Y-155663333D01*
X171538333Y-155520476D01*
X171585952Y-155425238D01*
X171633571Y-155377619D01*
X171728809Y-155330000D01*
X171966904Y-155330000D01*
X172062142Y-155377619D01*
X172109761Y-155425238D01*
X172157380Y-155520476D01*
X172157380Y-155806190D01*
X172109761Y-155901428D01*
X172062142Y-155949047D01*
X171157380Y-153853809D02*
X171871666Y-153853809D01*
X172014523Y-153901428D01*
X172109761Y-153996666D01*
X172157380Y-154139523D01*
X172157380Y-154234761D01*
X171490714Y-152949047D02*
X172157380Y-152949047D01*
X171490714Y-153377619D02*
X172014523Y-153377619D01*
X172109761Y-153330000D01*
X172157380Y-153234761D01*
X172157380Y-153091904D01*
X172109761Y-152996666D01*
X172062142Y-152949047D01*
X171490714Y-152472857D02*
X172157380Y-152472857D01*
X171585952Y-152472857D02*
X171538333Y-152425238D01*
X171490714Y-152330000D01*
X171490714Y-152187142D01*
X171538333Y-152091904D01*
X171633571Y-152044285D01*
X172157380Y-152044285D01*
X172109761Y-151187142D02*
X172157380Y-151282380D01*
X172157380Y-151472857D01*
X172109761Y-151568095D01*
X172014523Y-151615714D01*
X171633571Y-151615714D01*
X171538333Y-151568095D01*
X171490714Y-151472857D01*
X171490714Y-151282380D01*
X171538333Y-151187142D01*
X171633571Y-151139523D01*
X171728809Y-151139523D01*
X171824047Y-151615714D01*
X171252619Y-149996666D02*
X171205000Y-149949047D01*
X171157380Y-149853809D01*
X171157380Y-149615714D01*
X171205000Y-149520476D01*
X171252619Y-149472857D01*
X171347857Y-149425238D01*
X171443095Y-149425238D01*
X171585952Y-149472857D01*
X172157380Y-150044285D01*
X172157380Y-149425238D01*
X171157380Y-148806190D02*
X171157380Y-148710952D01*
X171205000Y-148615714D01*
X171252619Y-148568095D01*
X171347857Y-148520476D01*
X171538333Y-148472857D01*
X171776428Y-148472857D01*
X171966904Y-148520476D01*
X172062142Y-148568095D01*
X172109761Y-148615714D01*
X172157380Y-148710952D01*
X172157380Y-148806190D01*
X172109761Y-148901428D01*
X172062142Y-148949047D01*
X171966904Y-148996666D01*
X171776428Y-149044285D01*
X171538333Y-149044285D01*
X171347857Y-148996666D01*
X171252619Y-148949047D01*
X171205000Y-148901428D01*
X171157380Y-148806190D01*
X171252619Y-148091904D02*
X171205000Y-148044285D01*
X171157380Y-147949047D01*
X171157380Y-147710952D01*
X171205000Y-147615714D01*
X171252619Y-147568095D01*
X171347857Y-147520476D01*
X171443095Y-147520476D01*
X171585952Y-147568095D01*
X172157380Y-148139523D01*
X172157380Y-147520476D01*
X171157380Y-146901428D02*
X171157380Y-146806190D01*
X171205000Y-146710952D01*
X171252619Y-146663333D01*
X171347857Y-146615714D01*
X171538333Y-146568095D01*
X171776428Y-146568095D01*
X171966904Y-146615714D01*
X172062142Y-146663333D01*
X172109761Y-146710952D01*
X172157380Y-146806190D01*
X172157380Y-146901428D01*
X172109761Y-146996666D01*
X172062142Y-147044285D01*
X171966904Y-147091904D01*
X171776428Y-147139523D01*
X171538333Y-147139523D01*
X171347857Y-147091904D01*
X171252619Y-147044285D01*
X171205000Y-146996666D01*
X171157380Y-146901428D01*
X173907380Y-157449047D02*
X172907380Y-157449047D01*
X172907380Y-157210952D01*
X172955000Y-157068095D01*
X173050238Y-156972857D01*
X173145476Y-156925238D01*
X173335952Y-156877619D01*
X173478809Y-156877619D01*
X173669285Y-156925238D01*
X173764523Y-156972857D01*
X173859761Y-157068095D01*
X173907380Y-157210952D01*
X173907380Y-157449047D01*
X174002619Y-155020476D02*
X173955000Y-155115714D01*
X173859761Y-155210952D01*
X173716904Y-155353809D01*
X173669285Y-155449047D01*
X173669285Y-155544285D01*
X173907380Y-155496666D02*
X173859761Y-155591904D01*
X173764523Y-155687142D01*
X173574047Y-155734761D01*
X173240714Y-155734761D01*
X173050238Y-155687142D01*
X172955000Y-155591904D01*
X172907380Y-155496666D01*
X172907380Y-155306190D01*
X172955000Y-155210952D01*
X173050238Y-155115714D01*
X173240714Y-155068095D01*
X173574047Y-155068095D01*
X173764523Y-155115714D01*
X173859761Y-155210952D01*
X173907380Y-155306190D01*
X173907380Y-155496666D01*
X173907380Y-153877619D02*
X172907380Y-153877619D01*
X173621666Y-153544285D01*
X172907380Y-153210952D01*
X173907380Y-153210952D01*
X173859761Y-152306190D02*
X173907380Y-152401428D01*
X173907380Y-152591904D01*
X173859761Y-152687142D01*
X173812142Y-152734761D01*
X173716904Y-152782380D01*
X173431190Y-152782380D01*
X173335952Y-152734761D01*
X173288333Y-152687142D01*
X173240714Y-152591904D01*
X173240714Y-152401428D01*
X173288333Y-152306190D01*
X173907380Y-151877619D02*
X172907380Y-151877619D01*
X172907380Y-151639523D01*
X172955000Y-151496666D01*
X173050238Y-151401428D01*
X173145476Y-151353809D01*
X173335952Y-151306190D01*
X173478809Y-151306190D01*
X173669285Y-151353809D01*
X173764523Y-151401428D01*
X173859761Y-151496666D01*
X173907380Y-151639523D01*
X173907380Y-151877619D01*
X173907380Y-150734761D02*
X173859761Y-150830000D01*
X173812142Y-150877619D01*
X173716904Y-150925238D01*
X173431190Y-150925238D01*
X173335952Y-150877619D01*
X173288333Y-150830000D01*
X173240714Y-150734761D01*
X173240714Y-150591904D01*
X173288333Y-150496666D01*
X173335952Y-150449047D01*
X173431190Y-150401428D01*
X173716904Y-150401428D01*
X173812142Y-150449047D01*
X173859761Y-150496666D01*
X173907380Y-150591904D01*
X173907380Y-150734761D01*
X173240714Y-149972857D02*
X173907380Y-149972857D01*
X173335952Y-149972857D02*
X173288333Y-149925238D01*
X173240714Y-149830000D01*
X173240714Y-149687142D01*
X173288333Y-149591904D01*
X173383571Y-149544285D01*
X173907380Y-149544285D01*
X173907380Y-148639523D02*
X173383571Y-148639523D01*
X173288333Y-148687142D01*
X173240714Y-148782380D01*
X173240714Y-148972857D01*
X173288333Y-149068095D01*
X173859761Y-148639523D02*
X173907380Y-148734761D01*
X173907380Y-148972857D01*
X173859761Y-149068095D01*
X173764523Y-149115714D01*
X173669285Y-149115714D01*
X173574047Y-149068095D01*
X173526428Y-148972857D01*
X173526428Y-148734761D01*
X173478809Y-148639523D01*
X173907380Y-148020476D02*
X173859761Y-148115714D01*
X173764523Y-148163333D01*
X172907380Y-148163333D01*
X173907380Y-147210952D02*
X172907380Y-147210952D01*
X173859761Y-147210952D02*
X173907380Y-147306190D01*
X173907380Y-147496666D01*
X173859761Y-147591904D01*
X173812142Y-147639523D01*
X173716904Y-147687142D01*
X173431190Y-147687142D01*
X173335952Y-147639523D01*
X173288333Y-147591904D01*
X173240714Y-147496666D01*
X173240714Y-147306190D01*
X173288333Y-147210952D01*
D10*
X170198571Y-158802857D02*
X170198571Y-159517142D01*
X168698571Y-159517142D01*
X170198571Y-158088571D02*
X170127142Y-158231428D01*
X170055714Y-158302857D01*
X169912857Y-158374285D01*
X169484285Y-158374285D01*
X169341428Y-158302857D01*
X169270000Y-158231428D01*
X169198571Y-158088571D01*
X169198571Y-157874285D01*
X169270000Y-157731428D01*
X169341428Y-157660000D01*
X169484285Y-157588571D01*
X169912857Y-157588571D01*
X170055714Y-157660000D01*
X170127142Y-157731428D01*
X170198571Y-157874285D01*
X170198571Y-158088571D01*
X170198571Y-156088571D02*
X169484285Y-156588571D01*
X170198571Y-156945714D02*
X168698571Y-156945714D01*
X168698571Y-156374285D01*
X168770000Y-156231428D01*
X168841428Y-156160000D01*
X168984285Y-156088571D01*
X169198571Y-156088571D01*
X169341428Y-156160000D01*
X169412857Y-156231428D01*
X169484285Y-156374285D01*
X169484285Y-156945714D01*
X170198571Y-154802857D02*
X169412857Y-154802857D01*
X169270000Y-154874285D01*
X169198571Y-155017142D01*
X169198571Y-155302857D01*
X169270000Y-155445714D01*
X170127142Y-154802857D02*
X170198571Y-154945714D01*
X170198571Y-155302857D01*
X170127142Y-155445714D01*
X169984285Y-155517142D01*
X169841428Y-155517142D01*
X169698571Y-155445714D01*
X169627142Y-155302857D01*
X169627142Y-154945714D01*
X169555714Y-154802857D01*
X169198571Y-154302857D02*
X169198571Y-153731428D01*
X168698571Y-154088571D02*
X169984285Y-154088571D01*
X170127142Y-154017142D01*
X170198571Y-153874285D01*
X170198571Y-153731428D01*
X169627142Y-152088571D02*
X169627142Y-150945714D01*
X168698571Y-149302857D02*
X168698571Y-148445714D01*
X170198571Y-148874285D02*
X168698571Y-148874285D01*
X170198571Y-147945714D02*
X169198571Y-147945714D01*
X169484285Y-147945714D02*
X169341428Y-147874285D01*
X169270000Y-147802857D01*
X169198571Y-147660000D01*
X169198571Y-147517142D01*
X170198571Y-146374285D02*
X169412857Y-146374285D01*
X169270000Y-146445714D01*
X169198571Y-146588571D01*
X169198571Y-146874285D01*
X169270000Y-147017142D01*
X170127142Y-146374285D02*
X170198571Y-146517142D01*
X170198571Y-146874285D01*
X170127142Y-147017142D01*
X169984285Y-147088571D01*
X169841428Y-147088571D01*
X169698571Y-147017142D01*
X169627142Y-146874285D01*
X169627142Y-146517142D01*
X169555714Y-146374285D01*
X169198571Y-145660000D02*
X170698571Y-145660000D01*
X169270000Y-145660000D02*
X169198571Y-145517142D01*
X169198571Y-145231428D01*
X169270000Y-145088571D01*
X169341428Y-145017142D01*
X169484285Y-144945714D01*
X169912857Y-144945714D01*
X170055714Y-145017142D01*
X170127142Y-145088571D01*
X170198571Y-145231428D01*
X170198571Y-145517142D01*
X170127142Y-145660000D01*
X170127142Y-143231428D02*
X170198571Y-143017142D01*
X170198571Y-142660000D01*
X170127142Y-142517142D01*
X170055714Y-142445714D01*
X169912857Y-142374285D01*
X169770000Y-142374285D01*
X169627142Y-142445714D01*
X169555714Y-142517142D01*
X169484285Y-142660000D01*
X169412857Y-142945714D01*
X169341428Y-143088571D01*
X169270000Y-143160000D01*
X169127142Y-143231428D01*
X168984285Y-143231428D01*
X168841428Y-143160000D01*
X168770000Y-143088571D01*
X168698571Y-142945714D01*
X168698571Y-142588571D01*
X168770000Y-142374285D01*
X170127142Y-141160000D02*
X170198571Y-141302857D01*
X170198571Y-141588571D01*
X170127142Y-141731428D01*
X169984285Y-141802857D01*
X169412857Y-141802857D01*
X169270000Y-141731428D01*
X169198571Y-141588571D01*
X169198571Y-141302857D01*
X169270000Y-141160000D01*
X169412857Y-141088571D01*
X169555714Y-141088571D01*
X169698571Y-141802857D01*
X169198571Y-140445714D02*
X170198571Y-140445714D01*
X169341428Y-140445714D02*
X169270000Y-140374285D01*
X169198571Y-140231428D01*
X169198571Y-140017142D01*
X169270000Y-139874285D01*
X169412857Y-139802857D01*
X170198571Y-139802857D01*
X170127142Y-139160000D02*
X170198571Y-139017142D01*
X170198571Y-138731428D01*
X170127142Y-138588571D01*
X169984285Y-138517142D01*
X169912857Y-138517142D01*
X169770000Y-138588571D01*
X169698571Y-138731428D01*
X169698571Y-138945714D01*
X169627142Y-139088571D01*
X169484285Y-139160000D01*
X169412857Y-139160000D01*
X169270000Y-139088571D01*
X169198571Y-138945714D01*
X169198571Y-138731428D01*
X169270000Y-138588571D01*
X170198571Y-137660000D02*
X170127142Y-137802857D01*
X170055714Y-137874285D01*
X169912857Y-137945714D01*
X169484285Y-137945714D01*
X169341428Y-137874285D01*
X169270000Y-137802857D01*
X169198571Y-137660000D01*
X169198571Y-137445714D01*
X169270000Y-137302857D01*
X169341428Y-137231428D01*
X169484285Y-137160000D01*
X169912857Y-137160000D01*
X170055714Y-137231428D01*
X170127142Y-137302857D01*
X170198571Y-137445714D01*
X170198571Y-137660000D01*
X170198571Y-136517142D02*
X169198571Y-136517142D01*
X169484285Y-136517142D02*
X169341428Y-136445714D01*
X169270000Y-136374285D01*
X169198571Y-136231428D01*
X169198571Y-136088571D01*
D12*
X143880000Y-143400000D02*
X143880000Y-144600000D01*
X142120000Y-144600000D02*
X142120000Y-143400000D01*
X145155000Y-112880000D02*
X143825000Y-112880000D01*
X145155000Y-111550000D02*
X145155000Y-112880000D01*
X145155000Y-110280000D02*
X142495000Y-110280000D01*
X142495000Y-110280000D02*
X142495000Y-105140000D01*
X145155000Y-110280000D02*
X145155000Y-105140000D01*
X145155000Y-105140000D02*
X142495000Y-105140000D01*
X145155000Y-137880000D02*
X143825000Y-137880000D01*
X145155000Y-136550000D02*
X145155000Y-137880000D01*
X145155000Y-135280000D02*
X142495000Y-135280000D01*
X142495000Y-135280000D02*
X142495000Y-125060000D01*
X145155000Y-135280000D02*
X145155000Y-125060000D01*
X145155000Y-125060000D02*
X142495000Y-125060000D01*
X172880000Y-131880000D02*
X171550000Y-131880000D01*
X172880000Y-130550000D02*
X172880000Y-131880000D01*
X172880000Y-129280000D02*
X170220000Y-129280000D01*
X170220000Y-129280000D02*
X170220000Y-121600000D01*
X172880000Y-129280000D02*
X172880000Y-121600000D01*
X172880000Y-121600000D02*
X170220000Y-121600000D01*
X172880000Y-117880000D02*
X171550000Y-117880000D01*
X172880000Y-116550000D02*
X172880000Y-117880000D01*
X172880000Y-115280000D02*
X170220000Y-115280000D01*
X170220000Y-115280000D02*
X170220000Y-107600000D01*
X172880000Y-115280000D02*
X172880000Y-107600000D01*
X172880000Y-107600000D02*
X170220000Y-107600000D01*
X173955000Y-103345000D02*
X173955000Y-104675000D01*
X172625000Y-103345000D02*
X173955000Y-103345000D01*
X171355000Y-103345000D02*
X171355000Y-106005000D01*
X171355000Y-106005000D02*
X168755000Y-106005000D01*
X171355000Y-103345000D02*
X168755000Y-103345000D01*
X168755000Y-103345000D02*
X168755000Y-106005000D01*
X143880000Y-149400000D02*
X143880000Y-150600000D01*
X142120000Y-150600000D02*
X142120000Y-149400000D01*
X142495000Y-116220000D02*
X143825000Y-116220000D01*
X142495000Y-117550000D02*
X142495000Y-116220000D01*
X142495000Y-118820000D02*
X145155000Y-118820000D01*
X145155000Y-118820000D02*
X145155000Y-121420000D01*
X142495000Y-118820000D02*
X142495000Y-121420000D01*
X142495000Y-121420000D02*
X145155000Y-121420000D01*
D13*
X166500000Y-143500000D02*
X149200000Y-143400000D01*
X166500000Y-143500000D02*
X166600000Y-160500000D01*
X166500000Y-160500000D02*
X149200000Y-160500000D01*
X149200000Y-160500000D02*
X149200000Y-143500000D01*
X145050000Y-155375000D02*
X142850000Y-155375000D01*
X145050000Y-157275000D02*
X145050000Y-155375000D01*
X142850000Y-157275000D02*
X145050000Y-157275000D01*
X142850000Y-155375000D02*
X142850000Y-157275000D01*
D12*
X141445000Y-161980000D02*
X141445000Y-160650000D01*
X142775000Y-161980000D02*
X141445000Y-161980000D01*
X144045000Y-161980000D02*
X144045000Y-159320000D01*
X144045000Y-159320000D02*
X146645000Y-159320000D01*
X144045000Y-161980000D02*
X146645000Y-161980000D01*
X146645000Y-161980000D02*
X146645000Y-159320000D01*
X151340000Y-103870000D02*
X151340000Y-104870000D01*
X153040000Y-104870000D02*
X153040000Y-103870000D01*
X166040000Y-105450000D02*
X166040000Y-104450000D01*
X164340000Y-104450000D02*
X164340000Y-105450000D01*
X162080000Y-104040000D02*
X160820000Y-104040000D01*
X155260000Y-104040000D02*
X156520000Y-104040000D01*
X162080000Y-107800000D02*
X162080000Y-104040000D01*
X155260000Y-110050000D02*
X155260000Y-104040000D01*
D13*
X158678571Y-127142857D02*
X159678571Y-127142857D01*
X158678571Y-127785714D02*
X159464285Y-127785714D01*
X159607142Y-127714285D01*
X159678571Y-127571428D01*
X159678571Y-127357142D01*
X159607142Y-127214285D01*
X159535714Y-127142857D01*
X159678571Y-126428571D02*
X158178571Y-126428571D01*
X158178571Y-125857142D01*
X158250000Y-125714285D01*
X158321428Y-125642857D01*
X158464285Y-125571428D01*
X158678571Y-125571428D01*
X158821428Y-125642857D01*
X158892857Y-125714285D01*
X158964285Y-125857142D01*
X158964285Y-126428571D01*
X159678571Y-124142857D02*
X159678571Y-125000000D01*
X159678571Y-124571428D02*
X158178571Y-124571428D01*
X158392857Y-124714285D01*
X158535714Y-124857142D01*
X158607142Y-125000000D01*
X156750000Y-131785714D02*
X156750000Y-131071428D01*
X157178571Y-131928571D02*
X155678571Y-131428571D01*
X157178571Y-130928571D01*
X157178571Y-129571428D02*
X156464285Y-130071428D01*
X157178571Y-130428571D02*
X155678571Y-130428571D01*
X155678571Y-129857142D01*
X155750000Y-129714285D01*
X155821428Y-129642857D01*
X155964285Y-129571428D01*
X156178571Y-129571428D01*
X156321428Y-129642857D01*
X156392857Y-129714285D01*
X156464285Y-129857142D01*
X156464285Y-130428571D01*
X157178571Y-128928571D02*
X155678571Y-128928571D01*
X155678571Y-128571428D01*
X155750000Y-128357142D01*
X155892857Y-128214285D01*
X156035714Y-128142857D01*
X156321428Y-128071428D01*
X156535714Y-128071428D01*
X156821428Y-128142857D01*
X156964285Y-128214285D01*
X157107142Y-128357142D01*
X157178571Y-128571428D01*
X157178571Y-128928571D01*
X155678571Y-127428571D02*
X156892857Y-127428571D01*
X157035714Y-127357142D01*
X157107142Y-127285714D01*
X157178571Y-127142857D01*
X157178571Y-126857142D01*
X157107142Y-126714285D01*
X157035714Y-126642857D01*
X156892857Y-126571428D01*
X155678571Y-126571428D01*
X157178571Y-125857142D02*
X155678571Y-125857142D01*
X155678571Y-125285714D01*
X155750000Y-125142857D01*
X155821428Y-125071428D01*
X155964285Y-125000000D01*
X156178571Y-125000000D01*
X156321428Y-125071428D01*
X156392857Y-125142857D01*
X156464285Y-125285714D01*
X156464285Y-125857142D01*
X157178571Y-123500000D02*
X156464285Y-124000000D01*
X157178571Y-124357142D02*
X155678571Y-124357142D01*
X155678571Y-123785714D01*
X155750000Y-123642857D01*
X155821428Y-123571428D01*
X155964285Y-123500000D01*
X156178571Y-123500000D01*
X156321428Y-123571428D01*
X156392857Y-123642857D01*
X156464285Y-123785714D01*
X156464285Y-124357142D01*
X155678571Y-122571428D02*
X155678571Y-122285714D01*
X155750000Y-122142857D01*
X155892857Y-122000000D01*
X156178571Y-121928571D01*
X156678571Y-121928571D01*
X156964285Y-122000000D01*
X157107142Y-122142857D01*
X157178571Y-122285714D01*
X157178571Y-122571428D01*
X157107142Y-122714285D01*
X156964285Y-122857142D01*
X156678571Y-122928571D01*
X156178571Y-122928571D01*
X155892857Y-122857142D01*
X155750000Y-122714285D01*
X155678571Y-122571428D01*
X157178571Y-121285714D02*
X155678571Y-121285714D01*
X156750000Y-120785714D01*
X155678571Y-120285714D01*
X157178571Y-120285714D01*
X157178571Y-119571428D02*
X155678571Y-119571428D01*
X157178571Y-118857142D02*
X155678571Y-118857142D01*
X157178571Y-118000000D01*
X155678571Y-118000000D01*
X157178571Y-117285714D02*
X155678571Y-117285714D01*
X145152380Y-144738095D02*
X144152380Y-144738095D01*
X144152380Y-144500000D01*
X144200000Y-144357142D01*
X144295238Y-144261904D01*
X144390476Y-144214285D01*
X144580952Y-144166666D01*
X144723809Y-144166666D01*
X144914285Y-144214285D01*
X145009523Y-144261904D01*
X145104761Y-144357142D01*
X145152380Y-144500000D01*
X145152380Y-144738095D01*
X145152380Y-143214285D02*
X145152380Y-143785714D01*
X145152380Y-143500000D02*
X144152380Y-143500000D01*
X144295238Y-143595238D01*
X144390476Y-143690476D01*
X144438095Y-143785714D01*
X143086904Y-114332380D02*
X143086904Y-113332380D01*
X143658333Y-114332380D02*
X143229761Y-113760952D01*
X143658333Y-113332380D02*
X143086904Y-113903809D01*
X144610714Y-114332380D02*
X144039285Y-114332380D01*
X144325000Y-114332380D02*
X144325000Y-113332380D01*
X144229761Y-113475238D01*
X144134523Y-113570476D01*
X144039285Y-113618095D01*
X143086904Y-139332380D02*
X143086904Y-138332380D01*
X143467857Y-138332380D01*
X143563095Y-138380000D01*
X143610714Y-138427619D01*
X143658333Y-138522857D01*
X143658333Y-138665714D01*
X143610714Y-138760952D01*
X143563095Y-138808571D01*
X143467857Y-138856190D01*
X143086904Y-138856190D01*
X144610714Y-139332380D02*
X144039285Y-139332380D01*
X144325000Y-139332380D02*
X144325000Y-138332380D01*
X144229761Y-138475238D01*
X144134523Y-138570476D01*
X144039285Y-138618095D01*
X170811904Y-133332380D02*
X170811904Y-132332380D01*
X171192857Y-132332380D01*
X171288095Y-132380000D01*
X171335714Y-132427619D01*
X171383333Y-132522857D01*
X171383333Y-132665714D01*
X171335714Y-132760952D01*
X171288095Y-132808571D01*
X171192857Y-132856190D01*
X170811904Y-132856190D01*
X171764285Y-132427619D02*
X171811904Y-132380000D01*
X171907142Y-132332380D01*
X172145238Y-132332380D01*
X172240476Y-132380000D01*
X172288095Y-132427619D01*
X172335714Y-132522857D01*
X172335714Y-132618095D01*
X172288095Y-132760952D01*
X171716666Y-133332380D01*
X172335714Y-133332380D01*
X170811904Y-119332380D02*
X170811904Y-118332380D01*
X171192857Y-118332380D01*
X171288095Y-118380000D01*
X171335714Y-118427619D01*
X171383333Y-118522857D01*
X171383333Y-118665714D01*
X171335714Y-118760952D01*
X171288095Y-118808571D01*
X171192857Y-118856190D01*
X170811904Y-118856190D01*
X171716666Y-118332380D02*
X172335714Y-118332380D01*
X172002380Y-118713333D01*
X172145238Y-118713333D01*
X172240476Y-118760952D01*
X172288095Y-118808571D01*
X172335714Y-118903809D01*
X172335714Y-119141904D01*
X172288095Y-119237142D01*
X172240476Y-119284761D01*
X172145238Y-119332380D01*
X171859523Y-119332380D01*
X171764285Y-119284761D01*
X171716666Y-119237142D01*
X175407380Y-105413095D02*
X174407380Y-105413095D01*
X174407380Y-105032142D01*
X174455000Y-104936904D01*
X174502619Y-104889285D01*
X174597857Y-104841666D01*
X174740714Y-104841666D01*
X174835952Y-104889285D01*
X174883571Y-104936904D01*
X174931190Y-105032142D01*
X174931190Y-105413095D01*
X174407380Y-103936904D02*
X174407380Y-104413095D01*
X174883571Y-104460714D01*
X174835952Y-104413095D01*
X174788333Y-104317857D01*
X174788333Y-104079761D01*
X174835952Y-103984523D01*
X174883571Y-103936904D01*
X174978809Y-103889285D01*
X175216904Y-103889285D01*
X175312142Y-103936904D01*
X175359761Y-103984523D01*
X175407380Y-104079761D01*
X175407380Y-104317857D01*
X175359761Y-104413095D01*
X175312142Y-104460714D01*
X145152380Y-150166666D02*
X144676190Y-150500000D01*
X145152380Y-150738095D02*
X144152380Y-150738095D01*
X144152380Y-150357142D01*
X144200000Y-150261904D01*
X144247619Y-150214285D01*
X144342857Y-150166666D01*
X144485714Y-150166666D01*
X144580952Y-150214285D01*
X144628571Y-150261904D01*
X144676190Y-150357142D01*
X144676190Y-150738095D01*
X145152380Y-149214285D02*
X145152380Y-149785714D01*
X145152380Y-149500000D02*
X144152380Y-149500000D01*
X144295238Y-149595238D01*
X144390476Y-149690476D01*
X144438095Y-149785714D01*
X142491666Y-115624761D02*
X142634523Y-115672380D01*
X142872619Y-115672380D01*
X142967857Y-115624761D01*
X143015476Y-115577142D01*
X143063095Y-115481904D01*
X143063095Y-115386666D01*
X143015476Y-115291428D01*
X142967857Y-115243809D01*
X142872619Y-115196190D01*
X142682142Y-115148571D01*
X142586904Y-115100952D01*
X142539285Y-115053333D01*
X142491666Y-114958095D01*
X142491666Y-114862857D01*
X142539285Y-114767619D01*
X142586904Y-114720000D01*
X142682142Y-114672380D01*
X142920238Y-114672380D01*
X143063095Y-114720000D01*
X143396428Y-114672380D02*
X143634523Y-115672380D01*
X143825000Y-114958095D01*
X144015476Y-115672380D01*
X144253571Y-114672380D01*
X145158333Y-115672380D02*
X144586904Y-115672380D01*
X144872619Y-115672380D02*
X144872619Y-114672380D01*
X144777380Y-114815238D01*
X144682142Y-114910476D01*
X144586904Y-114958095D01*
X156738095Y-150152380D02*
X156738095Y-150961904D01*
X156785714Y-151057142D01*
X156833333Y-151104761D01*
X156928571Y-151152380D01*
X157119047Y-151152380D01*
X157214285Y-151104761D01*
X157261904Y-151057142D01*
X157309523Y-150961904D01*
X157309523Y-150152380D01*
X158309523Y-151152380D02*
X157738095Y-151152380D01*
X158023809Y-151152380D02*
X158023809Y-150152380D01*
X157928571Y-150295238D01*
X157833333Y-150390476D01*
X157738095Y-150438095D01*
X139811904Y-157027380D02*
X139811904Y-156027380D01*
X140192857Y-156027380D01*
X140288095Y-156075000D01*
X140335714Y-156122619D01*
X140383333Y-156217857D01*
X140383333Y-156360714D01*
X140335714Y-156455952D01*
X140288095Y-156503571D01*
X140192857Y-156551190D01*
X139811904Y-156551190D01*
X141240476Y-156360714D02*
X141240476Y-157027380D01*
X141002380Y-155979761D02*
X140764285Y-156694047D01*
X141383333Y-156694047D01*
X140897380Y-161388095D02*
X139897380Y-161388095D01*
X139897380Y-161007142D01*
X139945000Y-160911904D01*
X139992619Y-160864285D01*
X140087857Y-160816666D01*
X140230714Y-160816666D01*
X140325952Y-160864285D01*
X140373571Y-160911904D01*
X140421190Y-161007142D01*
X140421190Y-161388095D01*
X139897380Y-159959523D02*
X139897380Y-160150000D01*
X139945000Y-160245238D01*
X139992619Y-160292857D01*
X140135476Y-160388095D01*
X140325952Y-160435714D01*
X140706904Y-160435714D01*
X140802142Y-160388095D01*
X140849761Y-160340476D01*
X140897380Y-160245238D01*
X140897380Y-160054761D01*
X140849761Y-159959523D01*
X140802142Y-159911904D01*
X140706904Y-159864285D01*
X140468809Y-159864285D01*
X140373571Y-159911904D01*
X140325952Y-159959523D01*
X140278333Y-160054761D01*
X140278333Y-160245238D01*
X140325952Y-160340476D01*
X140373571Y-160388095D01*
X140468809Y-160435714D01*
X150232380Y-104395238D02*
X150232380Y-104966666D01*
X150232380Y-104680952D02*
X149232380Y-104680952D01*
X149375238Y-104776190D01*
X149470476Y-104871428D01*
X149518095Y-104966666D01*
X149565714Y-103538095D02*
X150232380Y-103538095D01*
X149565714Y-103966666D02*
X150089523Y-103966666D01*
X150184761Y-103919047D01*
X150232380Y-103823809D01*
X150232380Y-103680952D01*
X150184761Y-103585714D01*
X150137142Y-103538095D01*
X149708571Y-102728571D02*
X149708571Y-103061904D01*
X150232380Y-103061904D02*
X149232380Y-103061904D01*
X149232380Y-102585714D01*
X163912380Y-105555238D02*
X163912380Y-106126666D01*
X163912380Y-105840952D02*
X162912380Y-105840952D01*
X163055238Y-105936190D01*
X163150476Y-106031428D01*
X163198095Y-106126666D01*
X163245714Y-104698095D02*
X163912380Y-104698095D01*
X163245714Y-105126666D02*
X163769523Y-105126666D01*
X163864761Y-105079047D01*
X163912380Y-104983809D01*
X163912380Y-104840952D01*
X163864761Y-104745714D01*
X163817142Y-104698095D01*
X163388571Y-103888571D02*
X163388571Y-104221904D01*
X163912380Y-104221904D02*
X162912380Y-104221904D01*
X162912380Y-103745714D01*
X153622380Y-106711904D02*
X154431904Y-106711904D01*
X154527142Y-106664285D01*
X154574761Y-106616666D01*
X154622380Y-106521428D01*
X154622380Y-106330952D01*
X154574761Y-106235714D01*
X154527142Y-106188095D01*
X154431904Y-106140476D01*
X153622380Y-106140476D01*
X153717619Y-105711904D02*
X153670000Y-105664285D01*
X153622380Y-105569047D01*
X153622380Y-105330952D01*
X153670000Y-105235714D01*
X153717619Y-105188095D01*
X153812857Y-105140476D01*
X153908095Y-105140476D01*
X154050952Y-105188095D01*
X154622380Y-105759523D01*
X154622380Y-105140476D01*
X154943333Y-112002380D02*
X154943333Y-111002380D01*
X155276666Y-111716666D01*
X155610000Y-111002380D01*
X155610000Y-112002380D01*
X156657619Y-111907142D02*
X156610000Y-111954761D01*
X156467142Y-112002380D01*
X156371904Y-112002380D01*
X156229047Y-111954761D01*
X156133809Y-111859523D01*
X156086190Y-111764285D01*
X156038571Y-111573809D01*
X156038571Y-111430952D01*
X156086190Y-111240476D01*
X156133809Y-111145238D01*
X156229047Y-111050000D01*
X156371904Y-111002380D01*
X156467142Y-111002380D01*
X156610000Y-111050000D01*
X156657619Y-111097619D01*
X157086190Y-112002380D02*
X157086190Y-111002380D01*
X157467142Y-111002380D01*
X157562380Y-111050000D01*
X157610000Y-111097619D01*
X157657619Y-111192857D01*
X157657619Y-111335714D01*
X157610000Y-111430952D01*
X157562380Y-111478571D01*
X157467142Y-111526190D01*
X157086190Y-111526190D01*
X158610000Y-112002380D02*
X158038571Y-112002380D01*
X158324285Y-112002380D02*
X158324285Y-111002380D01*
X158229047Y-111145238D01*
X158133809Y-111240476D01*
X158038571Y-111288095D01*
X158943333Y-111002380D02*
X159610000Y-111002380D01*
X159181428Y-112002380D01*
X160181428Y-111002380D02*
X160276666Y-111002380D01*
X160371904Y-111050000D01*
X160419523Y-111097619D01*
X160467142Y-111192857D01*
X160514761Y-111383333D01*
X160514761Y-111621428D01*
X160467142Y-111811904D01*
X160419523Y-111907142D01*
X160371904Y-111954761D01*
X160276666Y-112002380D01*
X160181428Y-112002380D01*
X160086190Y-111954761D01*
X160038571Y-111907142D01*
X159990952Y-111811904D01*
X159943333Y-111621428D01*
X159943333Y-111383333D01*
X159990952Y-111192857D01*
X160038571Y-111097619D01*
X160086190Y-111050000D01*
X160181428Y-111002380D01*
X160848095Y-111002380D02*
X161467142Y-111002380D01*
X161133809Y-111383333D01*
X161276666Y-111383333D01*
X161371904Y-111430952D01*
X161419523Y-111478571D01*
X161467142Y-111573809D01*
X161467142Y-111811904D01*
X161419523Y-111907142D01*
X161371904Y-111954761D01*
X161276666Y-112002380D01*
X160990952Y-112002380D01*
X160895714Y-111954761D01*
X160848095Y-111907142D01*
X161848095Y-111716666D02*
X162324285Y-111716666D01*
X161752857Y-112002380D02*
X162086190Y-111002380D01*
X162419523Y-112002380D01*
M02*
