G04 #@! TF.GenerationSoftware,KiCad,Pcbnew,(5.1.9-0-10_14)*
G04 #@! TF.CreationDate,2021-08-23T20:50:58+12:00*
G04 #@! TF.ProjectId,RatTrapSensorPCB,52617454-7261-4705-9365-6e736f725043,1.0*
G04 #@! TF.SameCoordinates,Original*
G04 #@! TF.FileFunction,Soldermask,Top*
G04 #@! TF.FilePolarity,Negative*
%FSLAX46Y46*%
G04 Gerber Fmt 4.6, Leading zero omitted, Abs format (unit mm)*
G04 Created by KiCad (PCBNEW (5.1.9-0-10_14)) date 2021-08-23 20:50:58*
%MOMM*%
%LPD*%
G01*
G04 APERTURE LIST*
%ADD10C,1.924000*%
%ADD11O,2.100000X2.100000*%
G04 APERTURE END LIST*
D10*
X151041100Y-111353600D03*
X151041100Y-113893600D03*
X151041100Y-116433600D03*
X151041100Y-118973600D03*
X151041100Y-121513600D03*
X151041100Y-124053600D03*
X151041100Y-126593600D03*
X151041100Y-129133600D03*
X151041100Y-131673600D03*
X151041100Y-134213600D03*
X151041100Y-136753600D03*
X151041100Y-139293600D03*
X166281100Y-111353600D03*
X166281100Y-113893600D03*
X166281100Y-116433600D03*
X166281100Y-118973600D03*
X166281100Y-121513600D03*
X166281100Y-124053600D03*
X166281100Y-126593600D03*
X166281100Y-129133600D03*
X166281100Y-131673600D03*
X166281100Y-134213600D03*
X166281100Y-136753600D03*
X166281100Y-139293600D03*
G36*
G01*
X142350000Y-141700000D02*
X143650000Y-141700000D01*
G75*
G02*
X143850000Y-141900000I0J-200000D01*
G01*
X143850000Y-143400000D01*
G75*
G02*
X143650000Y-143600000I-200000J0D01*
G01*
X142350000Y-143600000D01*
G75*
G02*
X142150000Y-143400000I0J200000D01*
G01*
X142150000Y-141900000D01*
G75*
G02*
X142350000Y-141700000I200000J0D01*
G01*
G37*
G36*
G01*
X142350000Y-144400000D02*
X143650000Y-144400000D01*
G75*
G02*
X143850000Y-144600000I0J-200000D01*
G01*
X143850000Y-146100000D01*
G75*
G02*
X143650000Y-146300000I-200000J0D01*
G01*
X142350000Y-146300000D01*
G75*
G02*
X142150000Y-146100000I0J200000D01*
G01*
X142150000Y-144600000D01*
G75*
G02*
X142350000Y-144400000I200000J0D01*
G01*
G37*
G36*
G01*
X144875000Y-110700000D02*
X144875000Y-112400000D01*
G75*
G02*
X144675000Y-112600000I-200000J0D01*
G01*
X142975000Y-112600000D01*
G75*
G02*
X142775000Y-112400000I0J200000D01*
G01*
X142775000Y-110700000D01*
G75*
G02*
X142975000Y-110500000I200000J0D01*
G01*
X144675000Y-110500000D01*
G75*
G02*
X144875000Y-110700000I0J-200000D01*
G01*
G37*
D11*
X143825000Y-109010000D03*
X143825000Y-106470000D03*
G36*
G01*
X144875000Y-135700000D02*
X144875000Y-137400000D01*
G75*
G02*
X144675000Y-137600000I-200000J0D01*
G01*
X142975000Y-137600000D01*
G75*
G02*
X142775000Y-137400000I0J200000D01*
G01*
X142775000Y-135700000D01*
G75*
G02*
X142975000Y-135500000I200000J0D01*
G01*
X144675000Y-135500000D01*
G75*
G02*
X144875000Y-135700000I0J-200000D01*
G01*
G37*
X143825000Y-134010000D03*
X143825000Y-131470000D03*
X143825000Y-128930000D03*
X143825000Y-126390000D03*
G36*
G01*
X172600000Y-129700000D02*
X172600000Y-131400000D01*
G75*
G02*
X172400000Y-131600000I-200000J0D01*
G01*
X170700000Y-131600000D01*
G75*
G02*
X170500000Y-131400000I0J200000D01*
G01*
X170500000Y-129700000D01*
G75*
G02*
X170700000Y-129500000I200000J0D01*
G01*
X172400000Y-129500000D01*
G75*
G02*
X172600000Y-129700000I0J-200000D01*
G01*
G37*
X171550000Y-128010000D03*
X171550000Y-125470000D03*
X171550000Y-122930000D03*
G36*
G01*
X172600000Y-115700000D02*
X172600000Y-117400000D01*
G75*
G02*
X172400000Y-117600000I-200000J0D01*
G01*
X170700000Y-117600000D01*
G75*
G02*
X170500000Y-117400000I0J200000D01*
G01*
X170500000Y-115700000D01*
G75*
G02*
X170700000Y-115500000I200000J0D01*
G01*
X172400000Y-115500000D01*
G75*
G02*
X172600000Y-115700000I0J-200000D01*
G01*
G37*
X171550000Y-114010000D03*
X171550000Y-111470000D03*
X171550000Y-108930000D03*
G36*
G01*
X171775000Y-103625000D02*
X173475000Y-103625000D01*
G75*
G02*
X173675000Y-103825000I0J-200000D01*
G01*
X173675000Y-105525000D01*
G75*
G02*
X173475000Y-105725000I-200000J0D01*
G01*
X171775000Y-105725000D01*
G75*
G02*
X171575000Y-105525000I0J200000D01*
G01*
X171575000Y-103825000D01*
G75*
G02*
X171775000Y-103625000I200000J0D01*
G01*
G37*
X170085000Y-104675000D03*
G36*
G01*
X142350000Y-147700000D02*
X143650000Y-147700000D01*
G75*
G02*
X143850000Y-147900000I0J-200000D01*
G01*
X143850000Y-149400000D01*
G75*
G02*
X143650000Y-149600000I-200000J0D01*
G01*
X142350000Y-149600000D01*
G75*
G02*
X142150000Y-149400000I0J200000D01*
G01*
X142150000Y-147900000D01*
G75*
G02*
X142350000Y-147700000I200000J0D01*
G01*
G37*
G36*
G01*
X142350000Y-150400000D02*
X143650000Y-150400000D01*
G75*
G02*
X143850000Y-150600000I0J-200000D01*
G01*
X143850000Y-152100000D01*
G75*
G02*
X143650000Y-152300000I-200000J0D01*
G01*
X142350000Y-152300000D01*
G75*
G02*
X142150000Y-152100000I0J200000D01*
G01*
X142150000Y-150600000D01*
G75*
G02*
X142350000Y-150400000I200000J0D01*
G01*
G37*
G36*
G01*
X142775000Y-118400000D02*
X142775000Y-116700000D01*
G75*
G02*
X142975000Y-116500000I200000J0D01*
G01*
X144675000Y-116500000D01*
G75*
G02*
X144875000Y-116700000I0J-200000D01*
G01*
X144875000Y-118400000D01*
G75*
G02*
X144675000Y-118600000I-200000J0D01*
G01*
X142975000Y-118600000D01*
G75*
G02*
X142775000Y-118400000I0J200000D01*
G01*
G37*
X143825000Y-120090000D03*
G36*
G01*
X149762000Y-157600000D02*
X149762000Y-158600000D01*
G75*
G02*
X149562000Y-158800000I-200000J0D01*
G01*
X148038000Y-158800000D01*
G75*
G02*
X147838000Y-158600000I0J200000D01*
G01*
X147838000Y-157600000D01*
G75*
G02*
X148038000Y-157400000I200000J0D01*
G01*
X149562000Y-157400000D01*
G75*
G02*
X149762000Y-157600000I0J-200000D01*
G01*
G37*
G36*
G01*
X167962000Y-144830000D02*
X167962000Y-145630000D01*
G75*
G02*
X167762000Y-145830000I-200000J0D01*
G01*
X166238000Y-145830000D01*
G75*
G02*
X166038000Y-145630000I0J200000D01*
G01*
X166038000Y-144830000D01*
G75*
G02*
X166238000Y-144630000I200000J0D01*
G01*
X167762000Y-144630000D01*
G75*
G02*
X167962000Y-144830000I0J-200000D01*
G01*
G37*
G36*
G01*
X167962000Y-146100000D02*
X167962000Y-146900000D01*
G75*
G02*
X167762000Y-147100000I-200000J0D01*
G01*
X166238000Y-147100000D01*
G75*
G02*
X166038000Y-146900000I0J200000D01*
G01*
X166038000Y-146100000D01*
G75*
G02*
X166238000Y-145900000I200000J0D01*
G01*
X167762000Y-145900000D01*
G75*
G02*
X167962000Y-146100000I0J-200000D01*
G01*
G37*
G36*
G01*
X167962000Y-147370000D02*
X167962000Y-148170000D01*
G75*
G02*
X167762000Y-148370000I-200000J0D01*
G01*
X166238000Y-148370000D01*
G75*
G02*
X166038000Y-148170000I0J200000D01*
G01*
X166038000Y-147370000D01*
G75*
G02*
X166238000Y-147170000I200000J0D01*
G01*
X167762000Y-147170000D01*
G75*
G02*
X167962000Y-147370000I0J-200000D01*
G01*
G37*
G36*
G01*
X167962000Y-148640000D02*
X167962000Y-149440000D01*
G75*
G02*
X167762000Y-149640000I-200000J0D01*
G01*
X166238000Y-149640000D01*
G75*
G02*
X166038000Y-149440000I0J200000D01*
G01*
X166038000Y-148640000D01*
G75*
G02*
X166238000Y-148440000I200000J0D01*
G01*
X167762000Y-148440000D01*
G75*
G02*
X167962000Y-148640000I0J-200000D01*
G01*
G37*
G36*
G01*
X167962000Y-149910000D02*
X167962000Y-150710000D01*
G75*
G02*
X167762000Y-150910000I-200000J0D01*
G01*
X166238000Y-150910000D01*
G75*
G02*
X166038000Y-150710000I0J200000D01*
G01*
X166038000Y-149910000D01*
G75*
G02*
X166238000Y-149710000I200000J0D01*
G01*
X167762000Y-149710000D01*
G75*
G02*
X167962000Y-149910000I0J-200000D01*
G01*
G37*
G36*
G01*
X167962000Y-151180000D02*
X167962000Y-151980000D01*
G75*
G02*
X167762000Y-152180000I-200000J0D01*
G01*
X166238000Y-152180000D01*
G75*
G02*
X166038000Y-151980000I0J200000D01*
G01*
X166038000Y-151180000D01*
G75*
G02*
X166238000Y-150980000I200000J0D01*
G01*
X167762000Y-150980000D01*
G75*
G02*
X167962000Y-151180000I0J-200000D01*
G01*
G37*
G36*
G01*
X167962000Y-152450000D02*
X167962000Y-153250000D01*
G75*
G02*
X167762000Y-153450000I-200000J0D01*
G01*
X166238000Y-153450000D01*
G75*
G02*
X166038000Y-153250000I0J200000D01*
G01*
X166038000Y-152450000D01*
G75*
G02*
X166238000Y-152250000I200000J0D01*
G01*
X167762000Y-152250000D01*
G75*
G02*
X167962000Y-152450000I0J-200000D01*
G01*
G37*
G36*
G01*
X167962000Y-153720000D02*
X167962000Y-154520000D01*
G75*
G02*
X167762000Y-154720000I-200000J0D01*
G01*
X166238000Y-154720000D01*
G75*
G02*
X166038000Y-154520000I0J200000D01*
G01*
X166038000Y-153720000D01*
G75*
G02*
X166238000Y-153520000I200000J0D01*
G01*
X167762000Y-153520000D01*
G75*
G02*
X167962000Y-153720000I0J-200000D01*
G01*
G37*
G36*
G01*
X167962000Y-154990000D02*
X167962000Y-155790000D01*
G75*
G02*
X167762000Y-155990000I-200000J0D01*
G01*
X166238000Y-155990000D01*
G75*
G02*
X166038000Y-155790000I0J200000D01*
G01*
X166038000Y-154990000D01*
G75*
G02*
X166238000Y-154790000I200000J0D01*
G01*
X167762000Y-154790000D01*
G75*
G02*
X167962000Y-154990000I0J-200000D01*
G01*
G37*
G36*
G01*
X167962000Y-156260000D02*
X167962000Y-157060000D01*
G75*
G02*
X167762000Y-157260000I-200000J0D01*
G01*
X166238000Y-157260000D01*
G75*
G02*
X166038000Y-157060000I0J200000D01*
G01*
X166038000Y-156260000D01*
G75*
G02*
X166238000Y-156060000I200000J0D01*
G01*
X167762000Y-156060000D01*
G75*
G02*
X167962000Y-156260000I0J-200000D01*
G01*
G37*
G36*
G01*
X167962000Y-157530000D02*
X167962000Y-158330000D01*
G75*
G02*
X167762000Y-158530000I-200000J0D01*
G01*
X166238000Y-158530000D01*
G75*
G02*
X166038000Y-158330000I0J200000D01*
G01*
X166038000Y-157530000D01*
G75*
G02*
X166238000Y-157330000I200000J0D01*
G01*
X167762000Y-157330000D01*
G75*
G02*
X167962000Y-157530000I0J-200000D01*
G01*
G37*
G36*
G01*
X167962000Y-158800000D02*
X167962000Y-159600000D01*
G75*
G02*
X167762000Y-159800000I-200000J0D01*
G01*
X166238000Y-159800000D01*
G75*
G02*
X166038000Y-159600000I0J200000D01*
G01*
X166038000Y-158800000D01*
G75*
G02*
X166238000Y-158600000I200000J0D01*
G01*
X167762000Y-158600000D01*
G75*
G02*
X167962000Y-158800000I0J-200000D01*
G01*
G37*
G36*
G01*
X149762000Y-159100000D02*
X149762000Y-160100000D01*
G75*
G02*
X149562000Y-160300000I-200000J0D01*
G01*
X148038000Y-160300000D01*
G75*
G02*
X147838000Y-160100000I0J200000D01*
G01*
X147838000Y-159100000D01*
G75*
G02*
X148038000Y-158900000I200000J0D01*
G01*
X149562000Y-158900000D01*
G75*
G02*
X149762000Y-159100000I0J-200000D01*
G01*
G37*
G36*
G01*
X142650000Y-158375000D02*
X142650000Y-157375000D01*
G75*
G02*
X142850000Y-157175000I200000J0D01*
G01*
X145050000Y-157175000D01*
G75*
G02*
X145250000Y-157375000I0J-200000D01*
G01*
X145250000Y-158375000D01*
G75*
G02*
X145050000Y-158575000I-200000J0D01*
G01*
X142850000Y-158575000D01*
G75*
G02*
X142650000Y-158375000I0J200000D01*
G01*
G37*
G36*
G01*
X142650000Y-155275000D02*
X142650000Y-154275000D01*
G75*
G02*
X142850000Y-154075000I200000J0D01*
G01*
X145050000Y-154075000D01*
G75*
G02*
X145250000Y-154275000I0J-200000D01*
G01*
X145250000Y-155275000D01*
G75*
G02*
X145050000Y-155475000I-200000J0D01*
G01*
X142850000Y-155475000D01*
G75*
G02*
X142650000Y-155275000I0J200000D01*
G01*
G37*
G36*
G01*
X144825000Y-156775000D02*
X144825000Y-155775000D01*
G75*
G02*
X145025000Y-155575000I200000J0D01*
G01*
X146075000Y-155575000D01*
G75*
G02*
X146275000Y-155775000I0J-200000D01*
G01*
X146275000Y-156775000D01*
G75*
G02*
X146075000Y-156975000I-200000J0D01*
G01*
X145025000Y-156975000D01*
G75*
G02*
X144825000Y-156775000I0J200000D01*
G01*
G37*
G36*
G01*
X143625000Y-161700000D02*
X141925000Y-161700000D01*
G75*
G02*
X141725000Y-161500000I0J200000D01*
G01*
X141725000Y-159800000D01*
G75*
G02*
X141925000Y-159600000I200000J0D01*
G01*
X143625000Y-159600000D01*
G75*
G02*
X143825000Y-159800000I0J-200000D01*
G01*
X143825000Y-161500000D01*
G75*
G02*
X143625000Y-161700000I-200000J0D01*
G01*
G37*
X145315000Y-160650000D03*
G36*
G01*
X152815000Y-104070000D02*
X151565000Y-104070000D01*
G75*
G02*
X151365000Y-103870000I0J200000D01*
G01*
X151365000Y-102370000D01*
G75*
G02*
X151565000Y-102170000I200000J0D01*
G01*
X152815000Y-102170000D01*
G75*
G02*
X153015000Y-102370000I0J-200000D01*
G01*
X153015000Y-103870000D01*
G75*
G02*
X152815000Y-104070000I-200000J0D01*
G01*
G37*
G36*
G01*
X152815000Y-106570000D02*
X151565000Y-106570000D01*
G75*
G02*
X151365000Y-106370000I0J200000D01*
G01*
X151365000Y-104870000D01*
G75*
G02*
X151565000Y-104670000I200000J0D01*
G01*
X152815000Y-104670000D01*
G75*
G02*
X153015000Y-104870000I0J-200000D01*
G01*
X153015000Y-106370000D01*
G75*
G02*
X152815000Y-106570000I-200000J0D01*
G01*
G37*
G36*
G01*
X165815000Y-107150000D02*
X164565000Y-107150000D01*
G75*
G02*
X164365000Y-106950000I0J200000D01*
G01*
X164365000Y-105450000D01*
G75*
G02*
X164565000Y-105250000I200000J0D01*
G01*
X165815000Y-105250000D01*
G75*
G02*
X166015000Y-105450000I0J-200000D01*
G01*
X166015000Y-106950000D01*
G75*
G02*
X165815000Y-107150000I-200000J0D01*
G01*
G37*
G36*
G01*
X165815000Y-104650000D02*
X164565000Y-104650000D01*
G75*
G02*
X164365000Y-104450000I0J200000D01*
G01*
X164365000Y-102950000D01*
G75*
G02*
X164565000Y-102750000I200000J0D01*
G01*
X165815000Y-102750000D01*
G75*
G02*
X166015000Y-102950000I0J-200000D01*
G01*
X166015000Y-104450000D01*
G75*
G02*
X165815000Y-104650000I-200000J0D01*
G01*
G37*
G36*
G01*
X157120000Y-110300000D02*
X155620000Y-110300000D01*
G75*
G02*
X155420000Y-110100000I0J200000D01*
G01*
X155420000Y-108100000D01*
G75*
G02*
X155620000Y-107900000I200000J0D01*
G01*
X157120000Y-107900000D01*
G75*
G02*
X157320000Y-108100000I0J-200000D01*
G01*
X157320000Y-110100000D01*
G75*
G02*
X157120000Y-110300000I-200000J0D01*
G01*
G37*
G36*
G01*
X161720000Y-110300000D02*
X160220000Y-110300000D01*
G75*
G02*
X160020000Y-110100000I0J200000D01*
G01*
X160020000Y-108100000D01*
G75*
G02*
X160220000Y-107900000I200000J0D01*
G01*
X161720000Y-107900000D01*
G75*
G02*
X161920000Y-108100000I0J-200000D01*
G01*
X161920000Y-110100000D01*
G75*
G02*
X161720000Y-110300000I-200000J0D01*
G01*
G37*
G36*
G01*
X159420000Y-110300000D02*
X157920000Y-110300000D01*
G75*
G02*
X157720000Y-110100000I0J200000D01*
G01*
X157720000Y-108100000D01*
G75*
G02*
X157920000Y-107900000I200000J0D01*
G01*
X159420000Y-107900000D01*
G75*
G02*
X159620000Y-108100000I0J-200000D01*
G01*
X159620000Y-110100000D01*
G75*
G02*
X159420000Y-110300000I-200000J0D01*
G01*
G37*
G36*
G01*
X160570000Y-104000000D02*
X156770000Y-104000000D01*
G75*
G02*
X156570000Y-103800000I0J200000D01*
G01*
X156570000Y-101800000D01*
G75*
G02*
X156770000Y-101600000I200000J0D01*
G01*
X160570000Y-101600000D01*
G75*
G02*
X160770000Y-101800000I0J-200000D01*
G01*
X160770000Y-103800000D01*
G75*
G02*
X160570000Y-104000000I-200000J0D01*
G01*
G37*
M02*
