G04 #@! TF.GenerationSoftware,KiCad,Pcbnew,(5.1.9-0-10_14)*
G04 #@! TF.CreationDate,2021-08-23T20:50:58+12:00*
G04 #@! TF.ProjectId,RatTrapSensorPCB,52617454-7261-4705-9365-6e736f725043,1.0*
G04 #@! TF.SameCoordinates,Original*
G04 #@! TF.FileFunction,Copper,L1,Top*
G04 #@! TF.FilePolarity,Positive*
%FSLAX46Y46*%
G04 Gerber Fmt 4.6, Leading zero omitted, Abs format (unit mm)*
G04 Created by KiCad (PCBNEW (5.1.9-0-10_14)) date 2021-08-23 20:50:58*
%MOMM*%
%LPD*%
G01*
G04 APERTURE LIST*
G04 #@! TA.AperFunction,ComponentPad*
%ADD10C,1.524000*%
G04 #@! TD*
G04 #@! TA.AperFunction,SMDPad,CuDef*
%ADD11R,1.300000X1.500000*%
G04 #@! TD*
G04 #@! TA.AperFunction,ComponentPad*
%ADD12R,1.700000X1.700000*%
G04 #@! TD*
G04 #@! TA.AperFunction,ComponentPad*
%ADD13O,1.700000X1.700000*%
G04 #@! TD*
G04 #@! TA.AperFunction,SMDPad,CuDef*
%ADD14R,1.524000X1.000000*%
G04 #@! TD*
G04 #@! TA.AperFunction,SMDPad,CuDef*
%ADD15R,1.524000X0.800000*%
G04 #@! TD*
G04 #@! TA.AperFunction,SMDPad,CuDef*
%ADD16R,2.200000X1.000000*%
G04 #@! TD*
G04 #@! TA.AperFunction,SMDPad,CuDef*
%ADD17R,1.050000X1.000000*%
G04 #@! TD*
G04 #@! TA.AperFunction,SMDPad,CuDef*
%ADD18R,1.250000X1.500000*%
G04 #@! TD*
G04 #@! TA.AperFunction,SMDPad,CuDef*
%ADD19R,1.500000X2.000000*%
G04 #@! TD*
G04 #@! TA.AperFunction,SMDPad,CuDef*
%ADD20R,3.800000X2.000000*%
G04 #@! TD*
G04 #@! TA.AperFunction,ViaPad*
%ADD21C,0.600000*%
G04 #@! TD*
G04 #@! TA.AperFunction,Conductor*
%ADD22C,0.500000*%
G04 #@! TD*
G04 APERTURE END LIST*
D10*
X151041100Y-111353600D03*
X151041100Y-113893600D03*
X151041100Y-116433600D03*
X151041100Y-118973600D03*
X151041100Y-121513600D03*
X151041100Y-124053600D03*
X151041100Y-126593600D03*
X151041100Y-129133600D03*
X151041100Y-131673600D03*
X151041100Y-134213600D03*
X151041100Y-136753600D03*
X151041100Y-139293600D03*
X166281100Y-111353600D03*
X166281100Y-113893600D03*
X166281100Y-116433600D03*
X166281100Y-118973600D03*
X166281100Y-121513600D03*
X166281100Y-124053600D03*
X166281100Y-126593600D03*
X166281100Y-129133600D03*
X166281100Y-131673600D03*
X166281100Y-134213600D03*
X166281100Y-136753600D03*
X166281100Y-139293600D03*
D11*
X143000000Y-142650000D03*
X143000000Y-145350000D03*
D12*
X143825000Y-111550000D03*
D13*
X143825000Y-109010000D03*
X143825000Y-106470000D03*
D12*
X143825000Y-136550000D03*
D13*
X143825000Y-134010000D03*
X143825000Y-131470000D03*
X143825000Y-128930000D03*
X143825000Y-126390000D03*
D12*
X171550000Y-130550000D03*
D13*
X171550000Y-128010000D03*
X171550000Y-125470000D03*
X171550000Y-122930000D03*
D12*
X171550000Y-116550000D03*
D13*
X171550000Y-114010000D03*
X171550000Y-111470000D03*
X171550000Y-108930000D03*
D12*
X172625000Y-104675000D03*
D13*
X170085000Y-104675000D03*
D11*
X143000000Y-148650000D03*
X143000000Y-151350000D03*
D12*
X143825000Y-117550000D03*
D13*
X143825000Y-120090000D03*
D14*
X148800000Y-158100000D03*
D15*
X167000000Y-145230000D03*
X167000000Y-146500000D03*
X167000000Y-147770000D03*
X167000000Y-149040000D03*
X167000000Y-150310000D03*
X167000000Y-151580000D03*
X167000000Y-152850000D03*
X167000000Y-154120000D03*
X167000000Y-155390000D03*
X167000000Y-156660000D03*
X167000000Y-157930000D03*
X167000000Y-159200000D03*
D14*
X148800000Y-159600000D03*
D16*
X143950000Y-157875000D03*
X143950000Y-154775000D03*
D17*
X145550000Y-156275000D03*
D12*
X142775000Y-160650000D03*
D13*
X145315000Y-160650000D03*
D18*
X152190000Y-103120000D03*
X152190000Y-105620000D03*
X165190000Y-106200000D03*
X165190000Y-103700000D03*
D19*
X156370000Y-109100000D03*
X160970000Y-109100000D03*
X158670000Y-109100000D03*
D20*
X158670000Y-102800000D03*
D21*
X163575000Y-146500000D03*
X163575000Y-142525000D03*
X161200000Y-150125000D03*
X161350000Y-143575000D03*
X154150000Y-141575000D03*
X154150000Y-137350000D03*
D22*
X143825000Y-126390000D02*
X142335000Y-126390000D01*
X141700000Y-141350000D02*
X143000000Y-142650000D01*
X141700000Y-127025000D02*
X141700000Y-141350000D01*
X142335000Y-126390000D02*
X141700000Y-127025000D01*
X151041100Y-126593600D02*
X144028600Y-126593600D01*
X144028600Y-126593600D02*
X143825000Y-126390000D01*
X144078600Y-126643600D02*
X143825000Y-126390000D01*
X143000000Y-145350000D02*
X143000000Y-148650000D01*
X151041100Y-116433600D02*
X148308600Y-116433600D01*
X143825000Y-113700000D02*
X143825000Y-111550000D01*
X144775000Y-114650000D02*
X143825000Y-113700000D01*
X146525000Y-114650000D02*
X144775000Y-114650000D01*
X148308600Y-116433600D02*
X146525000Y-114650000D01*
X151041100Y-113893600D02*
X148868600Y-113893600D01*
X146135000Y-109010000D02*
X143825000Y-109010000D01*
X146500000Y-109375000D02*
X146135000Y-109010000D01*
X146500000Y-111525000D02*
X146500000Y-109375000D01*
X148868600Y-113893600D02*
X146500000Y-111525000D01*
X151041100Y-111353600D02*
X149028600Y-111353600D01*
X146395000Y-106470000D02*
X143825000Y-106470000D01*
X147675000Y-107750000D02*
X146395000Y-106470000D01*
X147675000Y-110000000D02*
X147675000Y-107750000D01*
X149028600Y-111353600D02*
X147675000Y-110000000D01*
X151041100Y-111353600D02*
X150853600Y-111353600D01*
X151041100Y-136753600D02*
X144028600Y-136753600D01*
X144028600Y-136753600D02*
X143825000Y-136550000D01*
X144078600Y-136803600D02*
X143825000Y-136550000D01*
X151041100Y-134213600D02*
X144028600Y-134213600D01*
X144028600Y-134213600D02*
X143825000Y-134010000D01*
X144078600Y-134263600D02*
X143825000Y-134010000D01*
X151041100Y-131673600D02*
X144028600Y-131673600D01*
X144028600Y-131673600D02*
X143825000Y-131470000D01*
X144078600Y-131723600D02*
X143825000Y-131470000D01*
X151041100Y-129133600D02*
X144028600Y-129133600D01*
X144028600Y-129133600D02*
X143825000Y-128930000D01*
X144078600Y-129183600D02*
X143825000Y-128930000D01*
X166281100Y-129133600D02*
X169408600Y-129133600D01*
X169408600Y-129133600D02*
X170825000Y-130550000D01*
X170825000Y-130550000D02*
X171550000Y-130550000D01*
X166281100Y-126593600D02*
X169981400Y-126593600D01*
X169981400Y-126593600D02*
X171397800Y-128010000D01*
X171397800Y-128010000D02*
X171550000Y-128010000D01*
X171090000Y-127550000D02*
X171550000Y-128010000D01*
X166281100Y-124053600D02*
X169771400Y-124053600D01*
X169771400Y-124053600D02*
X171187800Y-125470000D01*
X171187800Y-125470000D02*
X171550000Y-125470000D01*
X171130000Y-125050000D02*
X171550000Y-125470000D01*
X166281100Y-121513600D02*
X169988600Y-121513600D01*
X169988600Y-121513600D02*
X171405000Y-122930000D01*
X171405000Y-122930000D02*
X171550000Y-122930000D01*
X171170000Y-122550000D02*
X171550000Y-122930000D01*
X166281100Y-118973600D02*
X165076400Y-118973600D01*
X163575000Y-146500000D02*
X167000000Y-146500000D01*
X163575000Y-120475000D02*
X163575000Y-142525000D01*
X165076400Y-118973600D02*
X163575000Y-120475000D01*
X166281100Y-118973600D02*
X169126400Y-118973600D01*
X169126400Y-118973600D02*
X171550000Y-116550000D01*
X171550000Y-116550000D02*
X171550000Y-114010000D01*
X171497200Y-116550000D02*
X171550000Y-116550000D01*
X165160000Y-106975000D02*
X165160000Y-106850000D01*
X165190000Y-106200000D02*
X165190000Y-106325000D01*
X165190000Y-107450000D02*
X168750000Y-111010000D01*
X165190000Y-106200000D02*
X165190000Y-107450000D01*
X168750000Y-111210000D02*
X171550000Y-114010000D01*
X168750000Y-111010000D02*
X168750000Y-111210000D01*
X162220000Y-109100000D02*
X162230000Y-109110000D01*
X160970000Y-109100000D02*
X162220000Y-109100000D01*
X163530000Y-109110000D02*
X165190000Y-107450000D01*
X162230000Y-109110000D02*
X163530000Y-109110000D01*
X142775000Y-160650000D02*
X142775000Y-159050000D01*
X142775000Y-159050000D02*
X143950000Y-157875000D01*
X143950000Y-154775000D02*
X143950000Y-154175000D01*
X143000000Y-153225000D02*
X143000000Y-151350000D01*
X143950000Y-154175000D02*
X143000000Y-153225000D01*
X148650000Y-157950000D02*
X148800000Y-158100000D01*
X148800000Y-158100000D02*
X148800000Y-155550000D01*
X144600000Y-151350000D02*
X143000000Y-151350000D01*
X148800000Y-155550000D02*
X144600000Y-151350000D01*
X167000000Y-159200000D02*
X152925000Y-159200000D01*
X151825000Y-158100000D02*
X148800000Y-158100000D01*
X152925000Y-159200000D02*
X151825000Y-158100000D01*
X166281100Y-113893600D02*
X162756400Y-113893600D01*
X163350000Y-159200000D02*
X167000000Y-159200000D01*
X161075000Y-156925000D02*
X163350000Y-159200000D01*
X161075000Y-150250000D02*
X161075000Y-156925000D01*
X161200000Y-150125000D02*
X161075000Y-150250000D01*
X161400000Y-143525000D02*
X161350000Y-143575000D01*
X161400000Y-115250000D02*
X161400000Y-143525000D01*
X162756400Y-113893600D02*
X161400000Y-115250000D01*
X151041100Y-118973600D02*
X148323600Y-118973600D01*
X146900000Y-117550000D02*
X143825000Y-117550000D01*
X148323600Y-118973600D02*
X146900000Y-117550000D01*
X143550000Y-155175000D02*
X143950000Y-154775000D01*
X158810000Y-110310000D02*
X158810000Y-108810000D01*
X162756400Y-113893600D02*
X162393600Y-113893600D01*
X158810000Y-108810000D02*
X158810000Y-102510000D01*
X158810000Y-102510000D02*
X153545000Y-102510000D01*
X165160000Y-104225000D02*
X165160000Y-104350000D01*
X163445000Y-102510000D02*
X165160000Y-104225000D01*
X158810000Y-102510000D02*
X163445000Y-102510000D01*
X158690000Y-110340000D02*
X161940000Y-113590000D01*
X158690000Y-108840000D02*
X158690000Y-110340000D01*
X162452800Y-113590000D02*
X162756400Y-113893600D01*
X161940000Y-113590000D02*
X162452800Y-113590000D01*
X153315000Y-103120000D02*
X152190000Y-103120000D01*
X153545000Y-102890000D02*
X153315000Y-103120000D01*
X153545000Y-102510000D02*
X153545000Y-102890000D01*
X147050000Y-159600000D02*
X146365000Y-159600000D01*
X146365000Y-159600000D02*
X145315000Y-160650000D01*
X148800000Y-159600000D02*
X147050000Y-159600000D01*
X147050000Y-159600000D02*
X145550000Y-156275000D01*
X151041100Y-121513600D02*
X147813600Y-121513600D01*
X146525000Y-120225000D02*
X143960000Y-120225000D01*
X147813600Y-121513600D02*
X146525000Y-120225000D01*
X143960000Y-120225000D02*
X143825000Y-120090000D01*
X151041100Y-139293600D02*
X154793600Y-139293600D01*
X160730000Y-145230000D02*
X167000000Y-145230000D01*
X154793600Y-139293600D02*
X160730000Y-145230000D01*
X151041100Y-124053600D02*
X152528600Y-124053600D01*
X160325000Y-147750000D02*
X166980000Y-147750000D01*
X154150000Y-141575000D02*
X160325000Y-147750000D01*
X154150000Y-125675000D02*
X154150000Y-137350000D01*
X152528600Y-124053600D02*
X154150000Y-125675000D01*
X166980000Y-147750000D02*
X167000000Y-147770000D01*
X166281100Y-139293600D02*
X168743600Y-139293600D01*
X169320000Y-151580000D02*
X167000000Y-151580000D01*
X169775000Y-151125000D02*
X169320000Y-151580000D01*
X169775000Y-140325000D02*
X169775000Y-151125000D01*
X168743600Y-139293600D02*
X169775000Y-140325000D01*
X166281100Y-136753600D02*
X168328600Y-136753600D01*
X170700000Y-152850000D02*
X167000000Y-152850000D01*
X171375000Y-152175000D02*
X170700000Y-152850000D01*
X171375000Y-138425000D02*
X171375000Y-152175000D01*
X170700000Y-137750000D02*
X171375000Y-138425000D01*
X169325000Y-137750000D02*
X170700000Y-137750000D01*
X168328600Y-136753600D02*
X169325000Y-137750000D01*
X166281100Y-134213600D02*
X167538600Y-134213600D01*
X172144998Y-154120000D02*
X167000000Y-154120000D01*
X172925000Y-153339998D02*
X172144998Y-154120000D01*
X172925000Y-137325000D02*
X172925000Y-153339998D01*
X171550000Y-135950000D02*
X172925000Y-137325000D01*
X169275000Y-135950000D02*
X171550000Y-135950000D01*
X167538600Y-134213600D02*
X169275000Y-135950000D01*
X166281100Y-131673600D02*
X167798600Y-131673600D01*
X173160000Y-155390000D02*
X167000000Y-155390000D01*
X174200000Y-154350000D02*
X173160000Y-155390000D01*
X174200000Y-136075000D02*
X174200000Y-154350000D01*
X172425000Y-134300000D02*
X174200000Y-136075000D01*
X170425000Y-134300000D02*
X172425000Y-134300000D01*
X167798600Y-131673600D02*
X170425000Y-134300000D01*
X170085000Y-104675000D02*
X169300000Y-104675000D01*
X170085000Y-103472919D02*
X167412091Y-100800010D01*
X170085000Y-104675000D02*
X170085000Y-103472919D01*
X167412091Y-100800010D02*
X150249990Y-100800010D01*
X150249990Y-100800010D02*
X149180000Y-101870000D01*
X149180000Y-101870000D02*
X149180000Y-105655000D01*
X156400000Y-109240000D02*
X156400000Y-109490000D01*
X149215000Y-105620000D02*
X152190000Y-105620000D01*
X149180000Y-105655000D02*
X149215000Y-105620000D01*
X152190000Y-105745000D02*
X155285000Y-108840000D01*
X155285000Y-108840000D02*
X156390000Y-108840000D01*
X152190000Y-105620000D02*
X152190000Y-105745000D01*
M02*
