M48
INCH,TZ
T1C0.0157
T2C0.0300
T3C0.0394
%
G90
G05
T1
X60689Y-54075
X60689Y-55738
X63465Y-59104
X63524Y-56526
X64400Y-56112
X64400Y-57677
T2
X59465Y-43840
X59465Y-44840
X59465Y-45840
X59465Y-46840
X59465Y-47840
X59465Y-48840
X59465Y-49840
X59465Y-50840
X59465Y-51840
X59465Y-52840
X59465Y-53840
X59465Y-54840
X65465Y-43840
X65465Y-44840
X65465Y-45840
X65465Y-46840
X65465Y-47840
X65465Y-48840
X65465Y-49840
X65465Y-50840
X65465Y-51840
X65465Y-52840
X65465Y-53840
X65465Y-54840
T3
X67539Y-48398
X67539Y-49398
X67539Y-50398
X67539Y-51398
X56624Y-49760
X56624Y-50760
X56624Y-51760
X56624Y-52760
X56624Y-53760
X66963Y-41211
X67963Y-41211
X56624Y-41917
X56624Y-42917
X56624Y-43917
X56624Y-46280
X56624Y-47280
X67539Y-42886
X67539Y-43886
X67539Y-44886
X67539Y-45886
X56211Y-63248
X57211Y-63248
T0
M30
